<svg xmlns="http://www.w3.org/2000/svg" width="107" height="73" viewBox="0 0 107 73">
  <style>
    .cls-1 {
      fill: #fff;
      fill-rule: evenodd;
    }
  </style>
  <path id="arborescence" class="cls-1" d="M1019.5,885.562h-17.9v-6.584a2.485,2.485,0,0,0-2.488-2.487H970.923v-4.1h17.9a2.489,2.489,0,0,0,2.492-2.487V844.96a2.489,2.489,0,0,0-2.492-2.487H948.165a2.49,2.49,0,0,0-2.493,2.487v24.946a2.49,2.49,0,0,0,2.493,2.487h17.773v4.1H938.506a2.489,2.489,0,0,0-2.492,2.487v6.584H917.483a2.49,2.49,0,0,0-2.493,2.487V913a2.49,2.49,0,0,0,2.493,2.487H958.14A2.489,2.489,0,0,0,960.632,913V888.049a2.489,2.489,0,0,0-2.492-2.487H941v-4.1h55.621v4.1H978.847a2.49,2.49,0,0,0-2.493,2.487V913a2.49,2.49,0,0,0,2.493,2.487H1019.5A2.494,2.494,0,0,0,1022,913V888.049A2.494,2.494,0,0,0,1019.5,885.562Zm-68.843-38.116h35.672v19.973H950.657V847.446Zm4.99,63.063H919.975V890.536h35.672v19.973Zm61.363,0H981.339V890.536h35.671v19.973Z" transform="translate(-915 -842.469)"/>
</svg>
