<svg xmlns="http://www.w3.org/2000/svg" width="79.34" height="82.157" viewBox="0 0 79.34 82.157">
    <style>
      .cls-1 {
        fill: #fff;
        fill-rule: evenodd;
      }
    </style>
    <path id="board" class="cls-1" d="M974.964,909.54v10.45a2.721,2.721,0,1,1-5.441,0V909.556l-15.511,11.053c-2.956,2.106-6.11-2.334-3.154-4.44l18.665-13.3v-1.451H941.629a2.723,2.723,0,0,1-2.72-2.725V859.9H935.72A2.723,2.723,0,0,1,933,857.17V843.3a2.723,2.723,0,0,1,2.72-2.725h73.91a2.724,2.724,0,0,1,2.72,2.725V857.17a2.724,2.724,0,0,1-2.72,2.725h-3.29v38.8a2.724,2.724,0,0,1-2.72,2.725H974.964v1.435l18.688,13.316c2.955,2.106-.2,6.546-3.154,4.44Zm-33.335-55.094h65.281v-8.423H938.441v8.423h3.188Zm2.721,5.449v36.073h56.55V859.9H944.35Z" transform="translate(-933 -840.562)"/>
</svg>
