<svg xmlns="http://www.w3.org/2000/svg" width="105.44" height="76.937" viewBox="0 0 105.44 76.937">
  <style>
    .cls-1 {
      fill: #fff;
      fill-rule: evenodd;
    }
  </style>
  <path id="book" class="cls-1" d="M1882.68,845.3h-4.69v-7.468a0.23,0.23,0,0,0-.12-0.233,0.237,0.237,0,0,0-.11-0.233,0.406,0.406,0,0,1-.12-0.234c0-.116-0.12-0.116-0.12-0.233l-0.12-.117-0.11-.116-0.12-.117a0.42,0.42,0,0,0-.23-0.117c-0.12,0-.12-0.116-0.24-0.116s-0.11-.117-0.23-0.117h-0.24a0.235,0.235,0,0,1-.23-0.117h0a54.137,54.137,0,0,0-39.01,8.634,53.035,53.035,0,0,0-39.01-8.634h0c-0.12,0-.24,0-0.24.117h-0.23c-0.12,0-.12.117-0.23,0.117a0.243,0.243,0,0,0-.24.116,0.116,0.116,0,0,0-.12.117c-0.11,0-.11.117-0.23,0.117l-0.12.116-0.11.117a0.405,0.405,0,0,0-.12.233c0,0.117-.12.117-0.12,0.234a0.231,0.231,0,0,1-.12.233,0.237,0.237,0,0,1-.11.233V845.3h-4.69a7.01,7.01,0,0,0-7.03,6.884v53.206a6.934,6.934,0,0,0,7.03,6.883h91.38a7.017,7.017,0,0,0,7.03-6.883V852.3A7.04,7.04,0,0,0,1882.68,845.3Zm-91.38,62.423a2.342,2.342,0,0,1-2.34-2.333V852.3a2.342,2.342,0,0,1,2.34-2.333h4.69V900.84a2.472,2.472,0,0,0,.82,1.75,2.1,2.1,0,0,0,1.87.467,49.646,49.646,0,0,1,30.11,4.667H1791.3Zm43.35-1.983a54.126,54.126,0,0,0-33.98-7.585V840.4a48.779,48.779,0,0,1,33.98,8.4v56.94Zm4.68-56.94a48.766,48.766,0,0,1,33.97-8.4v57.756a54.1,54.1,0,0,0-33.97,7.585V848.8Zm45.69,56.706a2.342,2.342,0,0,1-2.34,2.334h-37.49a49.51,49.51,0,0,1,30.11-4.667,2.529,2.529,0,0,0,1.87-.467,2.085,2.085,0,0,0,.82-1.75V849.968h4.69a2.342,2.342,0,0,1,2.34,2.333v53.206Z" transform="translate(-1784.28 -835.344)"/>
</svg>
