<svg xmlns="http://www.w3.org/2000/svg" width="64.75" height="90" viewBox="0 0 64.75 90">
  <style>
    .cls-1 {
      fill: #fff;
      fill-rule: evenodd;
    }
  </style>
  <path id="doc" class="cls-1" d="M2352.36,866.72a2.351,2.351,0,0,0,2.35,2.353h37.28a2.355,2.355,0,0,0,0-4.709h-37.28A2.354,2.354,0,0,0,2352.36,866.72Zm39.63,30.929h-37.28a2.355,2.355,0,0,0,0,4.709h37.28A2.355,2.355,0,0,0,2391.99,897.649Zm13.05-49.261-18.65-18.725a2.357,2.357,0,0,0-1.63-.662h-41.45a2.256,2.256,0,0,0-1.59.718,2.421,2.421,0,0,0-.75,1.636v85.29a2.443,2.443,0,0,0,2.34,2.354h60.07a2.445,2.445,0,0,0,2.35-2.354V850.078A2.4,2.4,0,0,0,2405.04,848.388Zm-17.95-.665v-10.7l10.65,10.7h-10.65Zm-2.35,4.709h16.3V914.29h-55.38V833.711h36.74v16.367A2.437,2.437,0,0,0,2384.74,852.432Zm7.25,28.573h-37.28a2.356,2.356,0,0,0,0,4.711h37.28A2.356,2.356,0,0,0,2391.99,881.005Z" transform="translate(-2340.97 -829)"/>
</svg>
