<svg xmlns="http://www.w3.org/2000/svg" width="96.47" height="79.374" viewBox="0 0 96.47 79.374">
  <style>
    .cls-1 {
      fill: #fff;
      fill-rule: evenodd;
    }
  </style>
  <path id="faq" class="cls-1" d="M2763.51,838.94c-8.91,0-17.47,2.543-23.97,7.289s-10.44,11.48-10.44,18.668a21.9,21.9,0,0,0,5.97,14.636l-5.36,7.11a3.047,3.047,0,0,0,.58,4.256,3,3,0,0,0,2.55.529l14.51-3.629a43.751,43.751,0,0,0,16.15,3.048h0.01a45.942,45.942,0,0,0,5.2-.32v12.59a3.026,3.026,0,0,0,3.01,3.036h37.24l11.47,11.285a2.994,2.994,0,0,0,4.26-.052,3.055,3.055,0,0,0,.86-2.124V867.144a3.026,3.026,0,0,0-3.01-3.036h-24.67c-0.28-6.889-4.13-13.309-10.4-17.879C2780.97,841.483,2772.41,838.94,2763.51,838.94Zm0,6.079c7.75,0,15.16,2.282,20.43,6.131s7.95,8.78,7.95,13.747a14.336,14.336,0,0,1-.11,1.6c-0.02.076-.03,0.153-0.05,0.231-1.06,7.759-8.94,14.955-20.59,17.269-0.02.006-.05,0.012-0.08,0.018a38.973,38.973,0,0,1-7.55.759,37.652,37.652,0,0,1-14.74-2.953,2.987,2.987,0,0,0-1.91-.155l-7.19,1.791,1.79-2.366a3.055,3.055,0,0,0-.39-4.092c-3.97-3.6-5.94-7.839-5.95-12.109,0.01-4.967,2.68-9.892,7.96-13.741S2755.76,845.019,2763.51,845.019Zm33.69,25.161h22.32v37.877l-7.23-7.117a3,3,0,0,0-2.11-.859h-35.44V889.418a38.057,38.057,0,0,0,11.21-4.851c0.11-.074.23-0.15,0.34-0.225,0.39-.262.8-0.506,1.18-0.783,0.57-.418,1.1-0.869,1.63-1.316,0.06-.047.12-0.09,0.17-0.137a27.167,27.167,0,0,0,4.74-5.218c0.13-.2.25-0.4,0.38-0.605a21.4,21.4,0,0,0,1.39-2.455c0.08-.157.15-0.311,0.23-0.469A21.807,21.807,0,0,0,2797.2,870.18Z" transform="translate(-2729.09 -838.938)"/>
</svg>
