<svg xmlns="http://www.w3.org/2000/svg" width="110.15" height="74.593" viewBox="0 0 110.15 74.593">
    <style>
      .cls-1 {
        fill: #fff;
        fill-rule: evenodd;
      }
    </style>
    <path id="hp" class="cls-1" d="M1578.99,840.208a2.49,2.49,0,0,0-.62.153l-37.14,14.657-30.68-.123a8.775,8.775,0,0,0-8.78,8.692l-0.08,19.947a8.772,8.772,0,0,0,8.71,8.761l3.74,0.015-0.06,16.207a5.994,5.994,0,0,0,6.22,6.258l5,0.02a6,6,0,0,0,6.27-6.209l0.06-16.206,9.52,0.038,36.95,14.912a2.5,2.5,0,0,0,3.26-1.364,2.417,2.417,0,0,0,.18-0.92l0.13-31.167,0.12-31.167a2.494,2.494,0,0,0-2.47-2.522,2.434,2.434,0,0,0-.33.018h0Zm30.04,3.821a2.492,2.492,0,0,0-1.09.385L1587.9,856.8a2.506,2.506,0,0,0,2.63,4.266s0.01-.006.01-0.009l20.04-12.387A2.5,2.5,0,0,0,1609.03,844.029Zm-32.25,2.325-0.11,27.5-0.11,27.465-32.42-13.1,0.11-29.024Zm-66.25,13.527,16.23,0.065-0.11,27.427-16.23-.065a3.692,3.692,0,0,1-3.74-3.755l0.08-19.946a3.69,3.69,0,0,1,3.77-3.726h0Zm21.23,0.085,7.49,0.03-0.11,27.427-7.49-.03Zm57.18,11.449a2.5,2.5,0,1,0,.2,4.988h0.01l19.99,0.08a2.494,2.494,0,1,0,.09-4.987h-0.07l-19.99-.08C1589.09,871.412,1589.02,871.411,1588.94,871.415Zm0.06,14.921a2.489,2.489,0,0,0-1.23,4.631l19.93,12.546a2.5,2.5,0,0,0,2.67-4.235l-19.93-12.546A2.5,2.5,0,0,0,1589,886.336Zm-69.86,5.994,7.49,0.03-0.06,16.206a1.282,1.282,0,0,1-.28.934,1.06,1.06,0,0,1-.97.308l-5-.02a1.058,1.058,0,0,1-.97-0.315,1.259,1.259,0,0,1-.27-0.937Z" transform="translate(-1501.69 -840.188)"/>
</svg>
