<svg xmlns="http://www.w3.org/2000/svg" width="94.85" height="98.281" viewBox="0 0 94.85 98.281">
    <style>
      .cls-1 {
        fill: #fff;
        fill-rule: evenodd;
      }
    </style>
  <path id="hub" class="cls-1" d="M1305.01,880.945a20.106,20.106,0,0,0-11.78.615l-6.59-11.378,5.27-8.7a20.275,20.275,0,0,0,28.18-13.574h0a20.272,20.272,0,1,0-33.39,10.113l-5.51,9.088-16.02.854a20.284,20.284,0,1,0,1.69,14.179h0a20.231,20.231,0,0,0,.35-8.027l14.06-.749,6.5,11.211a20.314,20.314,0,0,0,12.37,36.408A20.321,20.321,0,0,0,1305.01,880.945Zm-18.25-41.285a14.047,14.047,0,1,1,27.27,6.75h0A14.047,14.047,0,1,1,1286.76,839.66Zm-25.96,40.985h0a14.04,14.04,0,1,1-13.66-17.447A14.071,14.071,0,0,1,1260.8,880.645Zm52.98,23.4a14.046,14.046,0,1,1-20.89-15.416,13.9,13.9,0,0,1,7.23-2.029,14.226,14.226,0,0,1,3.4.417A14.066,14.066,0,0,1,1313.78,904.044Z" transform="translate(-1226.84 -822.719)"/>
</svg>
