<svg xmlns="http://www.w3.org/2000/svg"  viewBox="0 0 18.7 19">
<style type="text/css">
	.st0{fill:#29ACEC;}
	.st1{fill:none;}
</style>
<g>
	<path class="st0" d="M9.4,5.5c-2.3,0-4.1,1.8-4.1,4.1s1.8,4,4.1,4s4.1-1.8,4.1-4.1C13.5,7.2,11.7,5.5,9.4,5.5z M9.4,11.9
		c-1.3,0-2.4-1-2.4-2.3s1-2.5,2.4-2.5s2.4,1.1,2.4,2.4C11.8,10.8,10.7,11.9,9.4,11.9z"/>
	<path class="st0" d="M13.6,4.2c-0.6,0-1,0.5-1,1.1c0,0.6,0.5,1,1.1,1c0.6,0,1-0.5,1-1C14.7,4.7,14.2,4.2,13.6,4.2z"/>
	<g>
		<path class="st1" d="M16.2,2.9c-0.5-0.5-0.9-0.8-1.5-1c-0.5-0.2-1.1-0.4-2-0.4c-0.8-0.1-1.1-0.1-3.3-0.1s-2.5,0-3.3,0
			c-0.9,0.1-1.5,0.2-2,0.4C3.5,2.1,3,2.4,2.6,2.8c-0.5,0.4-0.8,0.9-1,1.5c-0.2,0.5-0.3,1.2-0.4,2C1.1,7.1,1.1,7.4,1.1,9.6
			s0,2.6,0,3.3c0.1,0.9,0.2,1.5,0.4,2c0.3,0.6,0.6,1.1,1,1.5c0.4,0.5,0.9,0.8,1.5,1c0.5,0.2,1.1,0.4,2,0.4c0.8,0.1,1.1,0.1,3.3,0.1
			c2.2,0,2.6,0,3.3,0c0.9-0.1,1.5-0.2,2-0.4c0.6-0.3,1.1-0.6,1.5-1c0.5-0.4,0.8-0.9,1-1.5c0.2-0.5,0.4-1.1,0.4-2
			c0.1-0.8,0.1-1.1,0.1-3.3c0-2.2,0-2.6,0-3.3c-0.1-0.9-0.2-1.5-0.4-2C16.9,3.8,16.6,3.3,16.2,2.9z M9.4,11.9c-1.3,0-2.4-1-2.4-2.3
			s1-2.5,2.4-2.5s2.4,1.1,2.4,2.4C11.8,10.8,10.7,11.9,9.4,11.9z"/>
		<path class="st0" d="M17.4,0.6h-16c-0.5,0-1,0.5-1,1v16c0,0.6,0.4,1,1,1h16c0.5,0,1-0.5,1-1v-16C18.4,1.1,17.9,0.6,17.4,0.6z
			 M17.6,9.7c0,2.2,0,2.5-0.1,3.3c0,0.9-0.2,1.5-0.4,2c-0.2,0.6-0.5,1.1-1,1.5c-0.4,0.4-0.9,0.7-1.5,1c-0.5,0.2-1.1,0.3-2,0.4
			c-0.7,0-1.1,0-3.3,0c-2.2,0-2.5,0-3.3-0.1c-0.9,0-1.5-0.2-2-0.4c-0.6-0.2-1.1-0.5-1.5-1c-0.4-0.4-0.7-0.9-1-1.5
			c-0.2-0.5-0.3-1.1-0.4-2c0-0.7,0-1.1,0-3.3s0-2.5,0.1-3.3c0.1-0.8,0.2-1.5,0.4-2c0.2-0.6,0.5-1.1,1-1.5c0.4-0.4,0.9-0.7,1.5-1
			c0.5-0.2,1.1-0.3,2-0.4c0.8,0,1.1,0,3.3,0s2.5,0,3.3,0.1c0.9,0,1.5,0.2,2,0.4c0.6,0.2,1,0.5,1.5,1c0.4,0.4,0.7,0.9,1,1.5
			c0.2,0.5,0.3,1.1,0.4,2C17.6,7.1,17.6,7.5,17.6,9.7z"/>
	</g>
</g>
</svg>
