<svg xmlns="http://www.w3.org/2000/svg" viewBox="0 0 20.7 20.6">
<style type="text/css">
	.st0{fill:#29ACEC;}
</style>
<path class="st0" d="M10.4,0.3c2.7,0,3.1,0,4.1,0.1c1.1,0,1.8,0.2,2.4,0.5c0.7,0.3,1.2,0.6,1.8,1.2c0.5,0.5,0.9,1.1,1.2,1.8
	c0.2,0.6,0.4,1.4,0.5,2.4c0,0.9,0,1.3,0,4s0,3.1-0.1,4.1c0,1.1-0.2,1.8-0.5,2.4c-0.3,0.7-0.6,1.3-1.2,1.8c-0.5,0.5-1.1,0.9-1.8,1.2
	c-0.6,0.2-1.4,0.4-2.4,0.5c-0.9,0-1.3,0-4,0s-3.1,0-4.1-0.1c-1.1,0-1.8-0.2-2.4-0.5c-0.7-0.3-1.3-0.6-1.8-1.2
	c-0.5-0.5-0.9-1.1-1.2-1.8c-0.2-0.6-0.4-1.4-0.5-2.4c0-0.9,0-1.3,0-4s0-3.1,0.1-4.1S0.7,4.4,1,3.8C1.3,3.1,1.6,2.5,2.2,2
	C2.7,1.5,3.3,1.1,4,0.8c0.6-0.2,1.4-0.4,2.4-0.5C7.3,0.3,7.7,0.3,10.4,0.3z M10.4,5.3c-2.8,0-5,2.2-5,5s2.2,5,5,5s5-2.2,5-5
	S13.2,5.3,10.4,5.3z M16.9,5.1c0-0.7-0.6-1.3-1.3-1.3c-0.7,0-1.2,0.6-1.2,1.3s0.6,1.2,1.3,1.2C16.4,6.3,16.9,5.7,16.9,5.1z
	 M10.4,7.3c1.7,0,3,1.3,3,3s-1.3,3-3,3s-3-1.3-3-3S8.7,7.3,10.4,7.3z"/>
</svg>
