<svg xmlns="http://www.w3.org/2000/svg" viewBox="0 0 31 31" >
<style type="text/css">
	.st0{fill:#29ACEC;}
</style>
<path class="st0" d="M27.7,0H3.3C1.5,0,0,1.5,0,3.3v24.3C0,29.5,1.5,31,3.3,31h24.3c1.8,0,3.3-1.5,3.3-3.3V3.3C31,1.5,29.5,0,27.7,0
	z M9.5,25.9H4.8V11.8h4.7V25.9z M9.1,9.2C8.6,9.7,7.9,9.9,7.1,9.9h0c-0.8,0-1.4-0.2-1.9-0.7C4.7,8.7,4.5,8.1,4.5,7.4
	c0-0.7,0.3-1.3,0.7-1.7C5.7,5.2,6.4,5,7.2,5s1.4,0.2,1.9,0.7c0.5,0.5,0.7,1.1,0.7,1.7C9.8,8.1,9.5,8.7,9.1,9.2z M26.4,25.9h-4.7
	v-7.5c0-2.1-0.8-3.2-2.4-3.2c-0.5,0-1.1,0.2-1.5,0.5c-0.4,0.3-0.7,0.7-0.9,1.2c-0.1,0.2-0.1,0.6-0.1,1.1v7.9h-4.7
	c0-8.5,0-13.2,0-14.1h4.7v2c1-1.5,2.4-2.3,4.2-2.3c1.6,0,2.9,0.5,3.9,1.6s1.5,2.6,1.5,4.7V25.9z"/>
</svg>
