<svg xmlns="http://www.w3.org/2000/svg" width="94.1" height="93.7" viewBox="0 0 94.1 93.7">
	<style type="text/css">
		.st0{fill:#FFFFFF;}
	</style>
	<g>
		<path class="st0" d="M39.1,40c-0.8,4.1,0.4,8.3,3.6,11.4c5,5,13.2,5,18.2,0l16.6-16.6c5-5,5-13.2,0-18.2c-5-5-13.2-5-18.2,0
				l-10,10c0,0-4.5-1.1-8.8-0.8c-4.3,0.3-9.3,2.6-9.3,2.6c0.9-1.3,1.9-2.6,3.1-3.7L50.7,8.2c9.7-9.7,25.5-9.7,35.2,0
				s9.7,25.5,0,35.2L69.4,60c-9.7,9.7-25.5,9.7-35.2,0c-3.2-3.2-5.2-6.7-6.3-10.8c0,0,4.5-4.5,6.3-6.3C36.6,40.6,39.1,40,39.1,40z"
		/>
	</g>
	<g>
		<path class="st0" d="M55.2,53.8 M44.6,67.8 M62.4,66.5c-0.9,1.2-1.3,1.7-2.4,2.8L43.5,85.9c-9.7,9.7-25.5,9.7-35.2,0
				s-9.7-25.5,0-35.2l16.6-16.6c9.7-9.7,25.5-9.7,35.2,0c3,3,5.1,6.7,6.3,10.5c0,0-4.8,4.8-6.7,6.5c-1.6,1.6-4.4,2.3-4.4,2.3
				c0.6-3.9-0.6-7.8-3.6-10.9c-5-5-13.2-5-18.2,0L16.8,59.2c-5,5-5,13.2,0,18.2c5,5,13.2,5,18.2,0l9.6-9.6c0,0,4.3,1,8.4,0.8
				C57.1,68.5,62.4,66.5,62.4,66.5z"/>
	</g>
</svg>
