<svg xmlns="http://www.w3.org/2000/svg" viewBox="0 0 36 28">
<style type="text/css">
	.st0{fill:#32A7E5;}
</style>
<path class="st0" d="M36,4.8L36,4.8c-0.1-1.2-0.7-2.4-1.5-3.2c-1-1-2.3-1.6-3.7-1.6H5.2C3.8,0,2.5,0.5,1.6,1.6
	C0.7,2.4,0.1,3.6,0,4.8h0C0,4.9,0,4.9,0,5c0,0.1,0,0.2,0,0.2v17.5c0,1.4,0.5,2.7,1.6,3.7c1,1,2.3,1.6,3.7,1.6h25.5
	c1.4,0,2.7-0.5,3.7-1.6c1-1,1.5-2.3,1.5-3.7V5.3c0-0.1,0-0.2,0-0.2S36,4.9,36,4.8z M5.2,1.8h25.5c0.9,0,1.8,0.4,2.4,1
	c0.6,0.6,0.9,1.3,1,2.1c0,0.8-0.3,1.4-1,2c-1,0.9-13.3,9-15.1,9.1h0C16.4,16,4,8.1,2.8,6.9c-0.6-0.6-0.9-1.2-1-2
	c0.1-0.8,0.4-1.6,1-2.1C3.4,2.1,4.3,1.7,5.2,1.8z M33.2,25.2L33.2,25.2c-0.7,0.7-1.5,1-2.4,1H5.2c-0.9,0-1.7-0.3-2.4-1
	c-0.7-0.7-1-1.5-1-2.5V8.4c1.5,1.2,13.7,9.4,16.4,9.4h0.1c2.5-0.1,14.5-8.3,16-9.4v14.4C34.2,23.7,33.9,24.5,33.2,25.2L33.2,25.2z"
	/>
</svg>
