<svg xmlns="http://www.w3.org/2000/svg" viewBox="0 0 30 45">
<style type="text/css">
	.st0{fill:#32A7E5;}
</style>
<path class="st0" d="M25.6,4.5C22.7,1.5,19.1,0,15,0S7.3,1.5,4.4,4.5S0,11.1,0,15.3c0,2.2,0.3,4,1,5.4l10.1,21.8
	c0.3,0.8,0.9,1.4,1.6,1.9c1.4,0.9,3.2,0.9,4.6,0c0.7-0.4,1.3-1.1,1.6-1.8L29,20.7c0.7-1.4,1-3.2,1-5.4C30,11.1,28.5,7.5,25.6,4.5z
	 M27.5,20L17.4,41.8c-0.2,0.5-0.6,0.8-1,1.1c-0.9,0.6-2,0.6-2.9,0c-0.4-0.3-0.8-0.6-1-1.1L2.5,20c-0.5-1.2-0.8-2.8-0.8-4.7
	c0-3.8,1.3-6.9,3.9-9.6s5.7-4,9.4-4s6.8,1.3,9.4,4l0,0c2.6,2.7,3.9,5.8,3.9,9.6C28.3,17.2,28,18.8,27.5,20z M15,7.2
	c-2.2,0-4.1,0.8-5.6,2.4s-2.3,3.5-2.3,5.7s0.8,4.1,2.3,5.7c1.5,1.6,3.4,2.4,5.6,2.4s4.1-0.8,5.6-2.4c1.5-1.6,2.3-3.5,2.3-5.7
	s-0.8-4.1-2.3-5.7C19.1,8,17.2,7.2,15,7.2z M19.4,19.8c-1.2,1.2-2.7,1.9-4.4,1.9s-3.2-0.6-4.4-1.9s-1.8-2.7-1.8-4.5s0.6-3.2,1.8-4.5
	S13.3,9,15,9c1.7,0,3.2,0.6,4.4,1.9c1.2,1.3,1.8,2.7,1.8,4.5S20.6,18.5,19.4,19.8L19.4,19.8z"/>
</svg>
