<svg xmlns="http://www.w3.org/2000/svg" width="111.53" height="76.906" viewBox="0 0 111.53 76.906">
  <style>
    .cls-1 {
      fill: #fff;
      fill-rule: evenodd;
    }
  </style>
  <path id="members" class="cls-1" d="M1630.74,875.953a12.86,12.86,0,1,0-16.13-.072,20.642,20.642,0,0,0-7.44,6.29,29.54,29.54,0,0,0-10.65-7.762,18.03,18.03,0,1,0-19.6.013,29.59,29.59,0,0,0-10.68,7.825,20.642,20.642,0,0,0-7.43-6.326,12.863,12.863,0,1,0-16.14-.021,21.462,21.462,0,0,0-11.7,19.156c0,11.162,10.51,11.162,19.78,11.162,3.33,0,5.86-.114,7.96-0.3,1.98,12.052,15.15,12.082,28.03,12.082s26.06-.03,28.03-12.093c2.12,0.193,4.69.311,8.08,0.311,9.27,0,19.78,0,19.66-11.162A21.822,21.822,0,0,0,1630.74,875.953Zm-8.02-17.98a7.938,7.938,0,1,1-7.91,7.937A7.985,7.985,0,0,1,1622.72,857.973Zm-49.09,1.24a13.11,13.11,0,1,1,13.11,13.147A13.218,13.218,0,0,1,1573.63,859.213Zm-22.88-1.24a7.938,7.938,0,1,1-7.91,7.937A7.985,7.985,0,0,1,1550.75,857.973Zm-14.83,37.083c0-8.558,6.92-16.123,14.83-16.123,4.82,0,9.51,2.843,12.35,7.542a33.576,33.576,0,0,0-1.65,3.056c-0.12.246-.23,0.493-0.34,0.742-0.21.468-.41,0.938-0.6,1.418-0.04.106-.08,0.213-0.11,0.32a30.275,30.275,0,0,0-1.9,9c-1.97.124-4.43,0.246-7.75,0.246C1538.51,901.257,1535.92,900.141,1535.92,895.056Zm50.82,17.983c-17.81,0-23.37-1.488-23.37-10.418,0-13.518,10.88-25.3,23.37-25.3,6.98,0,13.45,3.685,17.81,9.292l-0.01.01,0.87,1.24a27.855,27.855,0,0,1,4.02,9.021c0,0.023.01,0.045,0.01,0.067,0.12,0.488.21,0.979,0.29,1.47,0.06,0.333.11,0.666,0.15,1s0.09,0.667.12,1c0.06,0.727.11,1.459,0.11,2.2C1610.11,911.551,1604.54,913.039,1586.74,913.039Zm36.11-11.782a68.335,68.335,0,0,1-7.79-.248,34.69,34.69,0,0,0-.58-4.185c-0.03-.131-0.06-0.259-0.09-0.389q-0.255-1.191-.6-2.367c-0.03-.1-0.05-0.211-0.09-0.315-0.26-.87-0.57-1.73-0.92-2.583-0.03-.064-0.05-0.127-0.08-0.192a32.686,32.686,0,0,0-2.34-4.6c2.84-4.589,7.54-7.441,12.36-7.441,7.92,0,14.84,7.565,14.96,16.123C1637.68,900.141,1635.09,901.257,1622.85,901.257Z" transform="translate(-1530.97 -841.094)"/>
</svg>
