<svg xmlns="http://www.w3.org/2000/svg" width="98.65" height="79.719" viewBox="0 0 98.65 79.719">
  <style>
    .cls-1 {
      fill: #fff;
      fill-rule: evenodd;
    }
  </style>
  <path id="platforms" class="cls-1" d="M1544.5,887.457a2.38,2.38,0,0,1-.99-0.22l-46.98-21.888a2.347,2.347,0,0,1,0-4.25l46.98-21.887a2.355,2.355,0,0,1,1.99,0l46.97,21.887a2.34,2.34,0,0,1,0,4.25l-46.97,21.889A2.39,2.39,0,0,1,1544.5,887.457Zm-41.42-24.233,41.42,19.3,41.43-19.3-41.43-19.3Zm42.42,39.648,46.97-21.887a2.344,2.344,0,1,0-1.98-4.25l-45.99,21.423-45.98-21.423a2.344,2.344,0,1,0-1.98,4.25l46.97,21.887a2.391,2.391,0,0,0,1,.22A2.347,2.347,0,0,0,1545.5,902.872Zm0,15.635,46.97-21.887a2.345,2.345,0,1,0-1.98-4.251l-45.99,21.424-45.98-21.425a2.345,2.345,0,1,0-1.98,4.251l46.97,21.887a2.365,2.365,0,0,0,.99.22A2.39,2.39,0,0,0,1545.5,918.507Z" transform="translate(-1495.16 -839)"/>
</svg>
