<svg xmlns="http://www.w3.org/2000/svg" width="92.47" height="85.625" viewBox="0 0 92.47 85.625">
  <defs>
    <style>
      .cls-1 {
        fill: #fff;
        fill-rule: evenodd;
      }
    </style>
  </defs>
  <path id="Forme_17" data-name="Forme 17" class="cls-1" d="M2086.15,866.407h22.97a2.685,2.685,0,0,0,2.58-2.586V847.733a2.685,2.685,0,0,0-2.58-2.585h-22.97a2.82,2.82,0,0,0-2.59,2.585v16.088A2.687,2.687,0,0,0,2086.15,866.407Zm2.58-5.171V850.319h17.8v10.917h-17.8Zm29.58,2.873h16.08a2.586,2.586,0,0,0,0-5.171h-16.08A2.586,2.586,0,1,0,2118.31,864.109Zm0-11.492h16.08a2.586,2.586,0,0,0,0-5.171h-16.08A2.586,2.586,0,1,0,2118.31,852.617ZM2086.15,877.9h48.24a2.586,2.586,0,0,0,0-5.171h-48.24A2.586,2.586,0,1,0,2086.15,877.9Zm59.72-44.241h-71.22a2.854,2.854,0,0,0-2.58,2.585v43.38h-13.5a2.837,2.837,0,0,0-2.58,2.586v26.43a10.643,10.643,0,0,0,10.63,10.629h71.21a10.643,10.643,0,0,0,10.63-10.629v-72.4A2.694,2.694,0,0,0,2145.87,833.657Zm-2.58,5.171v69.81a5.4,5.4,0,0,1-5.46,5.458h-62.35a9.883,9.883,0,0,0,1.76-5.458v-69.81h66.05Zm-71.22,45.965v23.845a5.455,5.455,0,1,1-10.91,0V884.793h10.91Zm14.08,18.386h48.24a2.586,2.586,0,0,0,0-5.171h-48.24A2.586,2.586,0,1,0,2086.15,903.179Zm0-12.64h48.24a2.586,2.586,0,0,0,0-5.171h-48.24A2.586,2.586,0,1,0,2086.15,890.539Z" transform="translate(-2056 -833.656)"/>
</svg>
