<svg xmlns="http://www.w3.org/2000/svg" viewBox="0 0 28 45">
<style type="text/css">
	.st0{fill:#32A7E5;}
</style>
<path class="st0" d="M26.4,1.5c-1-1-2.3-1.5-3.7-1.5H5.3C3.8,0,2.6,0.5,1.6,1.5S0,3.8,0,5.2v34.6c0,1.4,0.5,2.6,1.6,3.7
	c1,1,2.3,1.5,3.7,1.5h17.5c1.4,0,2.7-0.5,3.7-1.5c1-1,1.6-2.2,1.6-3.7V5.2C28,3.8,27.5,2.6,26.4,1.5z M26.2,39.8
	c0,0.9-0.3,1.7-1,2.4s-1.5,1-2.5,1H5.3c-0.9,0-1.8-0.3-2.5-1c-0.7-0.7-1-1.5-1-2.4V5.2c0-0.9,0.3-1.7,1-2.4s1.5-1,2.5-1h17.5
	c0.9,0,1.8,0.3,2.5,1l0,0c0.7,0.7,1,1.5,1,2.4V39.8z M16.7,4.3h-5.5v1.7h5.5L16.7,4.3z M11.5,36.5c-1.4,1.4-1.4,3.6,0,5c0,0,0,0,0,0
	c1.4,1.4,3.7,1.4,5.1,0c0,0,0,0,0,0c1.4-1.4,1.4-3.6,0-5c0,0,0,0,0,0C15.1,35.1,12.8,35.1,11.5,36.5z M15.3,40.3
	c-0.7,0.7-1.9,0.7-2.6,0c0,0,0,0,0,0c-0.7-0.7-0.7-1.9,0-2.6c0.3-0.3,0.8-0.5,1.3-0.5c1,0,1.9,0.8,1.9,1.8
	C15.9,39.5,15.7,40,15.3,40.3L15.3,40.3z M21.6,7.2H6.4c-0.5,0-1,0.2-1.4,0.6C4.7,8.2,4.4,8.6,4.4,9.2v23.2c0,0.5,0.2,1,0.6,1.4
	c0.4,0.4,0.9,0.6,1.4,0.6h15.2c0.5,0,1-0.2,1.4-0.6l0,0c0.4-0.4,0.6-0.8,0.6-1.4V9.2c0-0.5-0.2-1-0.6-1.4
	C22.6,7.4,22.1,7.2,21.6,7.2z M21.8,32.4c0,0,0,0.1-0.1,0.1l-0.1,0.1H6.4l-0.2-0.2V9.2L6.4,9h15.1l0.2,0.2V32.4z"/>
</svg>
