<svg xmlns="http://www.w3.org/2000/svg" width="24" height="24" viewBox="0 0 24 24">
<style type="text/css">
	.st0{fill:none;}
	.st1{fill:#29ACEC;}
</style>
	<path class="st1" d="M12,19.1c-0.4,0-0.8,0.3-0.8,0.8c0,0.2,0.1,0.4,0.2,0.5c0,0,0,0,0,0c0.3,0.3,0.8,0.3,1,0c0,0,0,0,0,0
		c0.3-0.3,0.3-0.8,0-1.1C12.4,19.1,12.2,19.1,12,19.1z"/>
	<path class="st1" d="M15.9,2.1H8.1c-1.5,0-2.6,1.2-2.6,2.6v14.5c0,1.5,1.2,2.7,2.6,2.7h7.7c1.5,0,2.7-1.2,2.7-2.7V4.7
		C18.5,3.3,17.3,2.1,15.9,2.1z M10.9,3.1h2.2v0.7h-2.2V3.1z M13,20.9c-0.6,0.6-1.5,0.6-2.1,0c-0.6-0.6-0.6-1.5,0-2.1v0
		c0.6-0.6,1.5-0.6,2.1,0c0,0,0,0,0,0C13.6,19.4,13.6,20.3,13,20.9z M16.5,16.4c0,0.2-0.1,0.5-0.3,0.6l0,0c-0.2,0.2-0.4,0.3-0.7,0.3
		H8.4c-0.2,0-0.5-0.1-0.7-0.3c-0.2-0.2-0.3-0.4-0.3-0.6v-11c0-0.2,0.1-0.5,0.3-0.6C8,4.6,8.2,4.5,8.4,4.5h7.1c0.2,0,0.5,0.1,0.6,0.3
		c0.2,0.2,0.3,0.4,0.3,0.7V16.4z"/>
</svg>
