<svg xmlns="http://www.w3.org/2000/svg" width="24" height="24" viewBox="0 0 24 24">
<style type="text/css">
	.st0{fill:none;}
	.st1{fill:#29ACEC;}
</style>
<path class="st1" d="M20,3H4C3.4,3,3,3.5,3,4v16c0,0.5,0.4,1,1,1h16c0.5,0,1-0.5,1-1V4C21,3.5,20.5,3,20,3z M18.7,8.5
	c0,0.1,0,0.3,0,0.4c0,4.6-3.5,9.9-9.9,9.9c-1.9,0-3.7-0.5-5.3-1.6c1.8,0.2,3.7-0.3,5.2-1.4c-1.5,0-2.8-1-3.3-2.4
	c0.5,0.1,1.1,0.1,1.6-0.1c-1.6-0.2-2.8-1.6-2.8-3.3l0,0c0.5,0.3,1,0.4,1.6,0.4c-1-0.6-1.6-1.7-1.6-2.9c0-0.6,0.2-1.2,0.5-1.8
	c1.8,2.2,4.4,3.5,7.2,3.6c-0.3-1.2,0.1-2.5,1-3.3c1.4-1.3,3.6-1.2,4.9,0.2c0.8-0.1,1.5-0.4,2.2-0.8c-0.3,0.8-0.8,1.5-1.5,1.9
	c0.7-0.1,1.4-0.3,2-0.5l0,0C20,7.4,19.4,8,18.7,8.5z"/>
</svg>
