<svg xmlns="http://www.w3.org/2000/svg" width="24" height="24" viewBox="0 0 24 24">
<style type="text/css">
	.st0{fill:none;}
	.st1{fill:#29ACEC;}
</style>
	<path class="st1" d="M15.9,13.7l-0.5-0.2c0,0-0.7-0.3-1.1-0.5c0,0-0.1,0-0.1,0c-0.1,0-0.2,0-0.3,0.1v0c0,0-0.1,0-0.7,0.8
		c-0.1,0.1-0.2,0.1-0.3,0.1c-0.1,0-0.1,0-0.2-0.1c-0.1,0-0.1-0.1-0.2-0.1l0,0c-0.5-0.2-0.9-0.5-1.3-0.8c-0.1-0.1-0.2-0.2-0.3-0.3
		c-0.3-0.3-0.6-0.7-0.8-1l0-0.1c0-0.1-0.1-0.1-0.1-0.2c0-0.1,0.1-0.2,0.1-0.2s0.2-0.2,0.3-0.3c0.1-0.1,0.1-0.2,0.2-0.3
		c0.1-0.2,0.1-0.3,0.1-0.4c-0.2-0.6-0.5-1.1-0.7-1.7c0-0.1-0.2-0.2-0.3-0.2c0,0-0.1,0-0.1,0c-0.1,0-0.2,0-0.3,0v0
		c-0.1,0-0.2,0-0.3,0.1C8.6,8.3,8.6,8.3,8.5,8.4C8.4,8.5,8.3,8.6,8.3,8.7C8,9.1,7.8,9.6,7.8,10c0,0.4,0.1,0.8,0.3,1.2
		c0.3,0.7,0.9,1.5,1.6,2.2c0.2,0.2,0.3,0.4,0.5,0.5c0.9,0.8,2,1.4,3.1,1.7l0.5,0.1c0.2,0,0.3,0,0.5,0c0.2,0,0.5-0.1,0.7-0.2
		c0.1-0.1,0.2-0.1,0.3-0.2c0,0,0,0,0.1-0.1c0.1-0.1,0.2-0.1,0.3-0.2c0.1-0.1,0.1-0.2,0.2-0.2c0.1-0.1,0.1-0.4,0.2-0.6
		c0-0.2,0-0.3,0-0.3C16,13.8,15.9,13.7,15.9,13.7z"/>
	<path class="st1" d="M20,3H4C3.5,3,3,3.5,3,4v16c0,0.5,0.5,1,1,1h16c0.5,0,1-0.5,1-1V4C21,3.5,20.5,3,20,3z M12,20.2
		c-1.4,0-2.9-0.4-4.1-1.1l-4.1,1.1l1.1-4.1c-0.7-1.3-1.1-2.7-1.1-4.1c0-4.5,3.7-8.2,8.2-8.2s8.2,3.7,8.2,8.2S16.5,20.2,12,20.2z"/>
</svg>
