<svg xmlns="http://www.w3.org/2000/svg" width="24" height="24" viewBox="0 0 24 24">
<style type="text/css">
	.st0{fill:none;}
	.st1{fill:#29ACEC;}
</style>
<path class="st1" d="M20.1,3h-16c-0.5,0-1,0.5-1,1v16c0,0.5,0.5,1,1,1h16c0.5,0,1-0.5,1-1V4C21.1,3.5,20.6,3,20.1,3z M19.3,16.2
	c-0.2,0.8-0.8,1.4-1.4,1.5c-1.3,0.4-5.8,0.4-5.8,0.4s-4.5,0-5.8-0.4c-0.7-0.2-1.3-0.8-1.4-1.5C4.5,14.8,4.5,12,4.5,12s0-2.8,0.4-4.2
	c0.2-0.8,0.8-1.4,1.4-1.5c1.3-0.4,5.8-0.4,5.8-0.4s4.5,0,5.8,0.4c0.7,0.2,1.3,0.8,1.4,1.5c0.4,1.4,0.4,4.2,0.4,4.2
	S19.7,14.8,19.3,16.2z"/>
<polygon class="st1" points="9.6,14.9 14.6,12 9.6,9.1 "/>
</svg>
