<svg width="30" height="30" viewBox="0 0 30 30" fill="none" xmlns="http://www.w3.org/2000/svg">
    <path fill="#1D1C6C" fill-rule="evenodd" clip-rule="evenodd" d="M28.8276 24.3394L23.3322 18.8264C24.4819 16.9056 25.0889 14.709 25.0893 12.4707C25.0827 5.61236 19.521 0.0565186 12.6627 0.0565186C11.7549 0.0565186 10.8502 0.157038 9.96465 0.356129C9.86685 0.377947 9.76672 0.402103 9.66503 0.428207C4.13724 1.80782 0.255944 6.77028 0.248542 12.4676C0.242698 18.1707 4.12906 23.1421 9.66503 24.5131C9.76283 24.5412 9.86296 24.5654 9.96465 24.5852C10.8502 24.7843 11.7549 24.8848 12.6627 24.8848C14.8289 24.8876 16.9582 24.3199 18.8357 23.2391L24.3756 28.7911C25.6052 30.0207 27.5984 30.0207 28.8276 28.7911C30.0569 27.5618 30.0569 25.5686 28.8276 24.3394ZM22.0765 12.4707C22.0769 13.4899 21.9109 14.5029 21.5848 15.4687C21.4531 15.8626 21.2949 16.2472 21.111 16.6196C20.1553 18.5541 18.5696 20.1055 16.6141 21.0176C15.3787 21.5895 14.0333 21.8852 12.6717 21.8841C11.758 21.8844 10.8495 21.7524 9.97361 21.4913L9.674 21.3955C5.83711 20.109 3.2501 16.5172 3.2462 12.4707C3.25049 8.42652 5.83244 4.8347 9.66503 3.54275L9.96465 3.44691C10.8401 3.18587 11.7491 3.05379 12.6627 3.05418C17.8597 3.05925 22.0714 7.27093 22.0765 12.4676V12.4707Z"/>
</svg>
