<?xml version="1.0" standalone="no"?>
<!DOCTYPE svg PUBLIC "-//W3C//DTD SVG 20010904//EN"
 "http://www.w3.org/TR/2001/REC-SVG-20010904/DTD/svg10.dtd">
<svg version="1.0" xmlns="http://www.w3.org/2000/svg"
 width="260.000000pt" height="260.000000pt" viewBox="0 0 260.000000 260.000000"
 preserveAspectRatio="xMidYMid meet">
<metadata>
Created by potrace 1.11, written by Peter Selinger 2001-2013
</metadata>
<g transform="translate(0.000000,260.000000) scale(0.100000,-0.100000)"
fill="#000000" stroke="none">
<path d="M0 1300 l0 -1300 1300 0 1300 0 0 1300 0 1300 -1300 0 -1300 0 0
-1300z m1853 515 c86 -22 147 -57 200 -114 58 -62 82 -113 98 -209 30 -181
-53 -362 -200 -436 -101 -51 -144 -56 -565 -56 -306 0 -387 3 -384 13 3 6 22
60 44 119 l39 108 330 0 c370 0 380 2 420 70 26 46 27 169 2 217 -34 64 -29
63 -532 63 l-455 0 0 -430 0 -430 -140 0 -140 0 0 550 0 550 613 0 c511 0 622
-2 670 -15z"/>
</g>
</svg>
