<svg xmlns="http://www.w3.org/2000/svg" viewBox="0 0 267 94">
<style type="text/css">
	.st0{fill:url(#SVGID_1_);}
	.st1{fill:#1D1C6C;}
</style>
<linearGradient id="SVGID_1_" gradientUnits="userSpaceOnUse" x1="104.0098" y1="589.0851" x2="258.423" y2="589.0851" gradientTransform="matrix(1 0 0 1 -49.34 -574.11)">
	<stop  offset="5.000000e-02" style="stop-color:#29ACEC"/>
	<stop  offset="0.95" style="stop-color:#A6CC08"/>
</linearGradient>
<path class="st0" d="M131.9,4c22.5,0.1,36.6,5.7,47.3,11.2c5.2,2.7,9.1,6,12.6,9.3c0.2,0.1,0.3,0.3,0.5,0.4c2.2,2.2,5,4,7.1,4.6
	c4.3,1.2,8.6-0.7,9.6-4.3c0.6-2.3-0.3-4.7-2.1-6.4c-1.1-1-2.3-1.9-3.6-2.7C185.5,6.1,159,0.1,131.9,0c-27.1,0-53.6,6.1-71.3,16.1
	c-1.3,0.8-2.5,1.7-3.6,2.7c-1.8,1.8-2.7,4.2-2.1,6.4c0.9,3.6,5.2,5.5,9.6,4.3c2.1-0.6,4.9-2.4,7.1-4.6c0.2-0.1,0.3-0.3,0.5-0.4
	c3.5-3.3,7.4-6.6,12.6-9.3C95.3,9.7,109.4,4.1,131.9,4z"/>
<path class="st1" d="M38.4,47.6L38.4,47.6c-2.1-2-4.9-3-8.5-3H0.1c0,0-0.1,0-0.1,0.1c0,0,0,0,0,0v30.1c0,0,0,0.1,0.1,0.1
	c0,0,0,0,0,0h7.2c0,0,0.1,0,0.1-0.1c0,0,0,0,0,0V51h22.6c2.7,0,4,1.6,4,4.8c0,3.3-1.3,5-4,5H13.7c0,0-0.1,0-0.1,0.1l-2.2,6.3
	c0,0,0,0.1,0,0.1c0,0,0,0,0.1,0h18.4c3.5,0,6.4-1.1,8.5-3.1c2.1-2.1,3.1-4.9,3.1-8.4C41.5,52.3,40.5,49.6,38.4,47.6z"/>
<path class="st1" d="M194.1,68.6h32.2c0,0,0.1,0,0.1,0.1v6c0,0,0,0.1-0.1,0.1h-32.2c0,0-0.1,0-0.1-0.1L194.1,68.6
	C194,68.6,194.1,68.6,194.1,68.6z"/>
<path class="st1" d="M194.1,44.5h32.2c0,0,0.1,0,0.1,0.1v6c0,0,0,0.1-0.1,0.1h-32.2c0,0-0.1,0-0.1-0.1L194.1,44.5
	C194,44.6,194.1,44.5,194.1,44.5z"/>
<path class="st1" d="M220.2,62.7C220.2,62.7,220.2,62.7,220.2,62.7l2.2-6.1c0,0,0-0.1,0-0.1c0,0,0,0-0.1,0h-28.2c0,0-0.1,0-0.1,0.1
	v6c0,0,0,0.1,0.1,0.1L220.2,62.7z"/>
<path class="st1" d="M73.3,44.6C73.3,44.5,73.3,44.5,73.3,44.6l-14.8,0c0,0-0.1,0-0.1,0L44.2,74.6c0,0,0,0.1,0,0.1c0,0,0,0,0.1,0
	h7.9c0,0,0.1,0,0.1,0l3.1-6.3h12.6c0,0,0.1,0,0.1-0.1l2.1-6c0,0,0-0.1,0-0.1c0,0,0,0-0.1,0H58.3l7.6-15.7l13.7,28.2c0,0,0,0,0.1,0
	h7.9c0,0,0.1,0,0.1,0c0,0,0-0.1,0-0.1L73.3,44.6z"/>
<path class="st1" d="M266.9,68.6h-21v-24c0,0,0-0.1-0.1-0.1c0,0,0,0,0,0h-6.7c0,0-0.1,0-0.1,0.1l0,0v30.1c0,0,0,0.1,0.1,0.1l0,0
	h25.7c0,0,0.1,0,0.1,0l2.1-5.8L266.9,68.6C267,68.6,267,68.6,266.9,68.6z"/>
<path class="st1" d="M125.6,58.8L125.6,58.8c-1.5-0.7-3.1-1.2-4.8-1.4c-1.3-0.2-3-0.3-4.7-0.5c-1.1-0.1-2.3-0.2-3.5-0.3
	c-6.4-0.6-10.4-1.5-10.4-3.9c0-2.2,1.2-2.9,8.5-2.9h2.8c5.1,0,7.3,1.1,7.7,3.9c0,0,0,0.1,0.1,0.1h7.5c0,0,0,0,0.1,0c0,0,0,0,0-0.1
	c-0.2-3.2-1.5-5.8-3.7-7.4c-2.2-1.7-5.6-2.6-9.9-2.6h-5.8c-5.2,0-8.9,0.7-11.1,2.2c-2.2,1.5-3.2,3.8-3.2,7c-0.1,2.4,1,4.7,2.8,6.2
	c0.9,0.7,2,1.3,3.1,1.7c2.7,1,5.3,1.4,8.4,1.7h0.1c1,0.1,2,0.2,3.1,0.3c2.1,0.2,4.1,0.3,5.4,0.6c2.8,0.6,4.2,1.2,4.2,3
	c0,1.1-0.7,2.1-1.8,2.4c-1.2,0.4-3.2,0.6-6.5,0.6h-2.9c-7.4-0.2-8.7-1.4-8.9-4c0,0,0-0.1-0.1-0.1h-7.5c0,0,0,0-0.1,0c0,0,0,0,0,0.1
	c0.4,7.4,4.1,9.9,14.8,10.1h5.8c9.7,0,14.3-2.9,14.3-9.1C129.5,62.5,128.3,60.3,125.6,58.8z"/>
<path class="st1" d="M177.9,64.5c3.3-2,4.9-5.1,4.9-9.3c0-3.2-1.1-5.8-3.1-7.7s-5-3-8.5-3h-29.4c0,0-0.1,0-0.1,0.1c0,0,0,0,0,0l0,0
	v30.1c0,0,0,0.1,0.1,0.1c0,0,0,0,0,0h7.1c0,0,0.1,0,0.1-0.1c0,0,0,0,0,0V50.9h22.2c2.5,0,4,1.6,4,4.3c0,2.9-1.5,4.6-4,4.6h-15.9
	c0,0-0.1,0-0.1,0.1l-2.2,6.2c0,0,0,0.1,0,0.1c0,0,0,0,0.1,0h17.3C175.2,66.3,177.9,64.5,177.9,64.5z"/>
<path class="st1" d="M177.9,67.9l-8.9-1.4c0,0-0.1,0-0.1,0c0,0,0,0.1,0,0.1l4.2,8.1c0,0,0,0,0.1,0h8.2c0,0,0.1,0,0.1,0
	c0,0,0-0.1,0-0.1L177.9,67.9C178,67.9,177.9,67.9,177.9,67.9z"/>
<path class="st1" d="M21.8,87.5h-2.4v-0.9h5.9v0.9h-2.5v6.4h-1V87.5z"/>
<path class="st1" d="M32.2,93v0.9H27v-7.3h5v0.9h-4v2.2h3.6v0.9H28V93L32.2,93z"/>
<path class="st1" d="M35.5,93.5c-0.6-0.3-1-0.8-1.4-1.3c-0.6-1.2-0.6-2.6,0-3.8c0.3-0.6,0.8-1,1.4-1.3c0.6-0.3,1.3-0.5,1.9-0.5
	c0.5,0,1,0.1,1.5,0.3c0.5,0.2,0.9,0.5,1.2,0.9l-0.7,0.7c-0.5-0.6-1.3-0.9-2-0.9c-0.5,0-1,0.1-1.4,0.4c-0.4,0.2-0.8,0.6-1,1
	c-0.5,0.9-0.5,2,0,2.9c0.2,0.4,0.6,0.8,1,1c0.4,0.2,0.9,0.4,1.4,0.4c0.8,0,1.5-0.3,2-0.9l0.7,0.7c-0.3,0.4-0.7,0.7-1.2,0.9
	c-0.5,0.2-1,0.3-1.5,0.3C36.7,94,36.1,93.8,35.5,93.5z"/>
<path class="st1" d="M48.2,86.6v7.3h-1v-3.2h-4.1v3.2h-1v-7.3h1v3.1h4.1v-3.1H48.2z"/>
<path class="st1" d="M57,86.6v7.3h-0.8l-4.3-5.4v5.4h-1v-7.3h0.8L56,92v-5.4H57z"/>
<path class="st1" d="M61,93.5c-0.6-0.3-1-0.8-1.4-1.3c-0.7-1.2-0.7-2.6,0-3.8c0.3-0.6,0.8-1,1.4-1.3c1.2-0.6,2.7-0.6,3.9,0
	c0.6,0.3,1,0.8,1.4,1.3c0.7,1.2,0.7,2.6,0,3.8c-0.3,0.6-0.8,1-1.4,1.3C63.7,94.1,62.3,94.1,61,93.5z M64.4,92.7c0.4-0.2,0.8-0.6,1-1
	c0.5-0.9,0.5-2,0-2.9c-0.2-0.4-0.6-0.8-1-1c-0.9-0.5-1.9-0.5-2.8,0c-0.4,0.2-0.8,0.6-1,1c-0.5,0.9-0.5,2,0,2.9c0.2,0.4,0.6,0.8,1,1
	c0.4,0.2,0.9,0.4,1.4,0.4C63.5,93.1,64,92.9,64.4,92.7L64.4,92.7z"/>
<path class="st1" d="M68.9,86.6h1V93h3.9v0.9h-4.9V86.6z"/>
<path class="st1" d="M76.6,93.5c-0.6-0.3-1-0.8-1.4-1.3c-0.7-1.2-0.7-2.6,0-3.8c0.3-0.6,0.8-1,1.4-1.3c1.2-0.6,2.7-0.6,3.9,0
	c0.6,0.3,1,0.8,1.4,1.3c0.7,1.2,0.7,2.6,0,3.8c-0.3,0.6-0.8,1-1.4,1.3C79.3,94.1,77.8,94.1,76.6,93.5z M80,92.7c0.4-0.2,0.8-0.6,1-1
	c0.5-0.9,0.5-2,0-2.9c-0.2-0.4-0.6-0.8-1-1c-0.9-0.5-1.9-0.5-2.8,0c-0.4,0.2-0.8,0.6-1,1c-0.5,0.9-0.5,2,0,2.9c0.2,0.4,0.6,0.8,1,1
	c0.4,0.2,0.9,0.4,1.4,0.4C79.1,93.1,79.6,92.9,80,92.7L80,92.7z"/>
<path class="st1" d="M89.5,90.2h1V93c-0.4,0.3-0.8,0.5-1.2,0.7c-0.5,0.2-1,0.2-1.5,0.2c-0.7,0-1.3-0.2-1.9-0.5
	c-0.6-0.3-1-0.8-1.4-1.3c-0.7-1.2-0.7-2.6,0-3.8c0.3-0.6,0.8-1,1.4-1.3c0.6-0.3,1.3-0.5,2-0.5c0.5,0,1.1,0.1,1.6,0.3
	c0.5,0.2,0.9,0.5,1.2,0.8L90,88.3c-0.5-0.6-1.3-0.9-2.1-0.8c-0.5,0-1,0.1-1.5,0.4c-0.4,0.2-0.8,0.6-1,1c-0.5,0.9-0.5,2,0,2.9
	c0.2,0.4,0.6,0.8,1,1c0.4,0.3,0.9,0.4,1.5,0.4c0.6,0,1.2-0.2,1.7-0.5L89.5,90.2z"/>
<path class="st1" d="M93,86.6h1v7.3h-1V86.6z"/>
<path class="st1" d="M101.9,93v0.9h-5.2v-7.3h5v0.9h-4v2.2h3.6v0.9h-3.6V93L101.9,93z"/>
<path class="st1" d="M112.3,94l-0.9-1c-0.6,0.6-1.5,1-2.4,0.9c-0.4,0-0.9-0.1-1.3-0.2c-0.4-0.1-0.7-0.4-0.9-0.7
	c-0.2-0.3-0.3-0.6-0.3-1c0-0.4,0.1-0.8,0.4-1.2c0.4-0.4,0.8-0.8,1.3-1.1c-0.3-0.3-0.5-0.5-0.7-0.9c-0.1-0.2-0.2-0.5-0.2-0.8
	c0-0.5,0.2-0.9,0.5-1.2c0.4-0.3,0.9-0.5,1.4-0.4c0.5,0,0.9,0.1,1.3,0.4c0.3,0.3,0.5,0.7,0.5,1.1c0,0.4-0.1,0.7-0.3,1
	c-0.3,0.4-0.7,0.7-1.2,0.9l1.8,1.8c0.2-0.4,0.3-0.9,0.4-1.3l0.8,0.3c-0.1,0.6-0.3,1.2-0.6,1.7l0.9,1L112.3,94z M110.8,92.4l-2-2.1
	c-0.4,0.2-0.7,0.5-1,0.8c-0.2,0.2-0.3,0.5-0.3,0.8c0,0.3,0.1,0.7,0.4,0.9c0.3,0.2,0.7,0.3,1.2,0.3C109.6,93.2,110.3,92.9,110.8,92.4
	L110.8,92.4z M108.5,87.5c-0.2,0.2-0.3,0.4-0.3,0.6c0,0.2,0.1,0.4,0.2,0.5c0.2,0.3,0.4,0.5,0.6,0.7c0.4-0.2,0.7-0.4,1-0.7
	c0.2-0.2,0.3-0.4,0.3-0.6c0-0.2-0.1-0.4-0.2-0.6c-0.2-0.2-0.4-0.2-0.7-0.2C109,87.3,108.7,87.3,108.5,87.5L108.5,87.5z"/>
<path class="st1" d="M124.2,93.9v-5.3l-2.6,4.4h-0.5l-2.6-4.4v5.3h-1v-7.3h0.8l3,5.1l2.9-5.1h0.8v7.3H124.2z"/>
<path class="st1" d="M133,93v0.9h-5.2v-7.3h5v0.9h-4v2.2h3.6v0.9h-3.6V93L133,93z M131,84.6h1.2l-1.7,1.4h-0.9L131,84.6z"/>
<path class="st1" d="M135.1,86.6h3c0.7,0,1.4,0.1,2,0.5c0.6,0.3,1,0.7,1.4,1.3c0.7,1.2,0.7,2.6,0,3.8c-0.3,0.6-0.8,1-1.4,1.3
	c-0.6,0.3-1.3,0.5-2,0.5h-3V86.6z M138.1,93c0.5,0,1-0.1,1.5-0.3c0.4-0.2,0.8-0.5,1-1c0.5-0.9,0.5-2,0-2.9c-0.2-0.4-0.6-0.8-1-1
	c-0.5-0.2-1-0.4-1.5-0.3h-1.9V93L138.1,93z"/>
<path class="st1" d="M149.3,93v0.9h-5.2v-7.3h5v0.9h-4v2.2h3.6v0.9h-3.6V93L149.3,93z"/>
<path class="st1" d="M152.6,93.5c-0.6-0.3-1-0.8-1.3-1.3c-0.6-1.2-0.6-2.6,0-3.8c0.3-0.6,0.8-1,1.4-1.3c0.6-0.3,1.3-0.5,1.9-0.5
	c0.5,0,1,0.1,1.5,0.3c0.5,0.2,0.9,0.5,1.2,0.9l-0.7,0.7c-0.5-0.6-1.2-0.9-2-0.9c-0.5,0-1,0.1-1.4,0.4c-0.4,0.2-0.8,0.6-1,1
	c-0.5,0.9-0.5,2,0,2.9c0.2,0.4,0.6,0.8,1,1c0.4,0.3,0.9,0.4,1.4,0.4c0.8,0,1.5-0.3,2-0.9l0.7,0.7c-0.3,0.4-0.7,0.7-1.2,0.9
	c-0.5,0.2-1,0.3-1.5,0.3C153.8,94,153.2,93.8,152.6,93.5z"/>
<path class="st1" d="M159.2,86.6h1v7.3h-1L159.2,86.6z"/>
<path class="st1" d="M169,86.6v7.3h-0.8l-4.3-5.4v5.4h-1v-7.3h0.8L168,92v-5.4H169z"/>
<path class="st1" d="M176.9,93v0.9h-5.2v-7.3h5v0.9h-4v2.2h3.6v0.9h-3.6V93L176.9,93z"/>
<path class="st1" d="M182.1,86.6h3c0.7,0,1.4,0.1,2,0.5c0.6,0.3,1,0.7,1.4,1.3c0.7,1.2,0.7,2.6,0,3.8c-0.3,0.6-0.8,1-1.4,1.3
	c-0.6,0.3-1.3,0.5-2,0.4h-3V86.6z M185,93c0.5,0,1-0.1,1.5-0.3c0.4-0.2,0.8-0.5,1-1c0.5-0.9,0.5-2,0-2.9c-0.2-0.4-0.6-0.8-1-1
	c-0.5-0.2-1-0.4-1.5-0.3h-1.9V93L185,93z"/>
<path class="st1" d="M196.3,93v0.9h-5.2v-7.3h5v0.9h-4v2.2h3.6v0.9h-3.6V93L196.3,93z"/>
<path class="st1" d="M201.5,86.6h3c0.7,0,1.4,0.1,2,0.5c0.6,0.3,1,0.7,1.4,1.3c0.6,1.2,0.6,2.6,0,3.8c-0.3,0.6-0.8,1-1.4,1.3
	c-0.6,0.3-1.3,0.5-2,0.5h-3V86.6z M204.4,93c0.5,0,1-0.1,1.5-0.3c0.4-0.2,0.8-0.5,1-1c0.5-0.9,0.5-2,0-2.9c-0.2-0.4-0.6-0.8-1-1
	c-0.5-0.2-1-0.4-1.5-0.3h-1.9V93L204.4,93z"/>
<path class="st1" d="M215.7,93v0.9h-5.2v-7.3h5v0.9h-4v2.2h3.6v0.9h-3.6V93L215.7,93z"/>
<path class="st1" d="M224.3,93.9v-5.3l-2.6,4.4h-0.5l-2.6-4.4v5.3h-1v-7.3h0.8l3,5.1l3-5.1h0.8v7.3H224.3z"/>
<path class="st1" d="M232.7,92.1h-3.8l-0.8,1.8H227l3.2-7.3h1l3.3,7.3h-1.1L232.7,92.1z M232.3,91.2l-1.5-3.6l-1.5,3.6L232.3,91.2z"
	/>
<path class="st1" d="M236.2,86.6h1v7.3h-1V86.6z"/>
<path class="st1" d="M246,86.6v7.3h-0.8l-4.3-5.4v5.4h-1v-7.3h0.8L245,92v-5.4H246z"/>
</svg>
