<svg  xmlns="http://www.w3.org/2000/svg" viewBox="0 0 210 58">
<style type="text/css">
	.st0{fill:#FFFFFF;}
</style>
<path class="st0" d="M103.7,3.1c17.7,0,28.8,4.4,37.2,8.6c4.1,2.1,7.1,4.6,9.9,7.1c0.1,0.1,0.3,0.2,0.4,0.3c1.8,1.7,4,3.1,5.6,3.5
	c3.4,0.9,6.8-0.6,7.5-3.3c0.5-1.8-0.2-3.6-1.7-4.9c-0.9-0.8-1.8-1.5-2.8-2.1C145.9,4.7,125,0,103.7,0C82.4,0,61.5,4.7,47.6,12.3
	c-1,0.6-1.9,1.3-2.8,2.1c-1.4,1.3-2.1,3.2-1.7,4.9c0.7,2.8,4.1,4.2,7.5,3.3c1.6-0.4,3.8-1.9,5.6-3.5c0.1-0.1,0.3-0.2,0.4-0.3
	c2.8-2.5,5.8-5.1,9.9-7.1C75,7.5,86,3.1,103.7,3.1z"/>
<path class="st0" d="M30.2,36.5L30.2,36.5c-1.7-1.5-3.9-2.3-6.7-2.3H0.1c0,0-0.1,0-0.1,0.1c0,0,0,0,0,0l0,0v23.1c0,0,0,0.1,0.1,0.1
	c0,0,0,0,0,0h5.6c0,0,0.1,0,0.1-0.1c0,0,0,0,0,0l0,0V39.1h17.7c2.1,0,3.1,1.2,3.1,3.7c0,2.5-1.1,3.8-3.1,3.8H10.7c0,0-0.1,0-0.1,0
	l-1.8,4.8c0,0,0,0,0,0.1c0,0,0,0,0.1,0h14.5c2.8,0,5-0.8,6.7-2.4c1.7-1.6,2.5-3.8,2.5-6.5C32.6,40.1,31.9,38.1,30.2,36.5z"/>
<path class="st0" d="M152.7,52.7H178c0,0,0.1,0,0.1,0.1v4.6c0,0,0,0.1-0.1,0.1h-25.3c0,0-0.1,0-0.1-0.1L152.7,52.7
	C152.6,52.7,152.6,52.7,152.7,52.7z"/>
<path class="st0" d="M152.7,34.2H178c0,0,0.1,0,0.1,0.1v4.6c0,0,0,0.1-0.1,0.1h-25.3c0,0-0.1,0-0.1-0.1L152.7,34.2
	C152.6,34.2,152.6,34.2,152.7,34.2z"/>
<path class="st0" d="M173.2,48.2C173.2,48.2,173.2,48.1,173.2,48.2l1.7-4.7c0,0,0,0,0-0.1c0,0,0,0-0.1,0h-22.2c0,0-0.1,0-0.1,0.1
	v4.6c0,0,0,0.1,0.1,0.1L173.2,48.2z"/>
<path class="st0" d="M57.7,34.2C57.7,34.2,57.6,34.2,57.7,34.2l-11.6,0c0,0,0,0-0.1,0L34.7,57.3c0,0,0,0,0,0.1c0,0,0,0,0.1,0H41
	c0,0,0,0,0.1,0l2.4-4.9h9.9c0,0,0.1,0,0.1,0l1.7-4.6c0,0,0,0,0-0.1c0,0,0,0-0.1,0h-9.2l6-12.1l10.8,21.7c0,0,0,0,0.1,0h6.2
	c0,0,0,0,0.1,0c0,0,0,0,0-0.1L57.7,34.2z"/>
<path class="st0" d="M209.9,52.7h-16.5V34.2c0,0,0-0.1-0.1-0.1c0,0,0,0,0,0h-5.3c0,0-0.1,0-0.1,0.1l0,0v23.1c0,0,0,0.1,0.1,0.1h20.2
	c0,0,0.1,0,0.1,0l1.6-4.5L209.9,52.7C210,52.7,210,52.7,209.9,52.7z"/>
<path class="st0" d="M98.8,45.2L98.8,45.2c-1.2-0.5-2.5-0.9-3.7-1.1c-1-0.2-2.3-0.3-3.7-0.4c-0.9-0.1-1.8-0.1-2.7-0.2
	c-5-0.5-8.1-1.1-8.1-3c0-1.7,1-2.2,6.7-2.2h2.2c4,0,5.7,0.9,6,3c0,0,0,0.1,0.1,0.1c0,0,0,0,0,0h5.9c0,0,0,0,0,0c0,0,0,0,0,0
	c-0.2-2.5-1.2-4.4-2.9-5.7c-1.8-1.3-4.4-2-7.8-2h-4.6c-4.1,0-7,0.6-8.7,1.7s-2.5,2.9-2.5,5.4c0,1.8,0.8,3.6,2.2,4.8
	c0.7,0.6,1.6,1,2.5,1.3c2.1,0.7,4.2,1,6.6,1.3h0.1c0.8,0.1,1.6,0.1,2.4,0.2c1.7,0.1,3.2,0.3,4.2,0.4c2.2,0.4,3.3,0.9,3.3,2.3
	c0,0.9-0.5,1.6-1.4,1.8c-0.9,0.3-2.5,0.5-5.1,0.5h-2.3c-5.8-0.1-6.9-1.1-7-3.1c0,0,0-0.1-0.1-0.1h-5.9c0,0,0,0,0,0c0,0,0,0,0,0
	c0.3,5.7,3.3,7.6,11.7,7.7h4.6c7.7,0,11.2-2.2,11.2-7C101.8,48,100.9,46.3,98.8,45.2z"/>
<path class="st0" d="M139.9,49.5c2.6-1.5,3.9-3.9,3.9-7.2c0-2.4-0.8-4.4-2.5-5.9c-1.6-1.5-3.9-2.3-6.7-2.3h-23.2c0,0-0.1,0-0.1,0.1
	c0,0,0,0,0,0l0,0v23.1c0,0,0,0.1,0,0.1h5.6c0,0,0.1,0,0.1,0V39.1h17.5c1.9,0,3.1,1.2,3.1,3.3c0,2.2-1.2,3.5-3.1,3.5h-12.5
	c0,0-0.1,0-0.1,0l-1.7,4.8c0,0,0,0,0,0.1c0,0,0,0,0.1,0H134C137.8,50.9,139.9,49.5,139.9,49.5z"/>
<path class="st0" d="M139.9,52.1l-7-1.1c0,0,0,0-0.1,0c0,0,0,0,0,0.1l3.3,6.2c0,0,0,0,0.1,0h6.4c0,0,0,0,0.1,0c0,0,0,0,0-0.1
	L139.9,52.1C140,52.1,140,52.1,139.9,52.1z"/>
</svg>
