<?xml version="1.0" standalone="no"?>
<!DOCTYPE svg PUBLIC "-//W3C//DTD SVG 1.1//EN" "http://www.w3.org/Graphics/SVG/1.1/DTD/svg11.dtd" >
<svg xmlns="http://www.w3.org/2000/svg">
<metadata>Generated by IcoMoon</metadata>
<defs>
<font id="icomoon" horiz-adv-x="1024">
<font-face units-per-em="1024" ascent="960" descent="-64" />
<missing-glyph horiz-adv-x="1024" />
<glyph unicode="&#x20;" horiz-adv-x="512" d="" />
<glyph unicode="&#xe90e;" glyph-name="facebook-box" d="M657.067 64v298.667h98.133l12.8 115.2h-115.2v72.533c0 34.133 8.533 55.467 55.467 55.467h59.733v102.4c-29.867 4.267-59.733 4.267-89.6 4.267-89.6 0-149.333-55.467-149.333-153.6v-85.333h-98.133v-110.933h98.133v-298.667h-358.4c-25.6 0-42.667 17.067-42.667 42.667v682.667c0 25.6 17.067 42.667 42.667 42.667h682.667c25.6 0 42.667-17.067 42.667-42.667v-682.667c0-25.6-17.067-42.667-42.667-42.667h-196.267z" />
<glyph unicode="&#xe902;" glyph-name="instagram-box" horiz-adv-x="1008" d="M937.768 927.663h-862.316c-26.947 0-53.895-26.947-53.895-53.895v-862.316c0-32.337 21.558-53.895 53.895-53.895h862.316c26.947 0 53.895 26.947 53.895 53.895v862.316c0 26.947-26.947 53.895-53.895 53.895zM948.547 437.221c0-118.568 0-134.737-5.389-177.853 0-48.505-10.779-80.842-21.558-107.789-10.779-32.337-26.947-59.284-53.895-80.842-21.558-21.558-48.505-37.726-80.842-53.895-26.947-10.779-59.284-16.168-107.789-21.558-37.726 0-59.284 0-177.853 0s-134.737 0-177.853 5.389c-48.505 0-80.842 10.779-107.789 21.558-32.337 10.779-59.284 26.947-80.842 53.895-21.558 21.558-37.726 48.505-53.895 80.842-10.779 26.947-16.168 59.284-21.558 107.789 0 37.726 0 59.284 0 177.853s0 134.737 5.389 177.853c5.389 43.116 10.779 80.842 21.558 107.789 10.779 32.337 26.947 59.284 53.895 80.842 21.558 21.558 48.505 37.726 80.842 53.895 26.947 10.779 59.284 16.168 107.789 21.558 43.116 0 59.284 0 177.853 0s134.737 0 177.853-5.389c48.505 0 80.842-10.779 107.789-21.558 32.337-10.779 53.895-26.947 80.842-53.895 21.558-21.558 37.726-48.505 53.895-80.842 10.779-26.947 16.168-59.284 21.558-107.789 0-37.726 0-59.284 0-177.853z" />
<glyph unicode="&#xe905;" glyph-name="instagram-fill" horiz-adv-x="1029" d="M516.971 945.087c134.214 0 154.097 0 203.806-4.971 54.68 0 89.476-9.942 119.301-24.854 34.796-14.913 59.65-29.825 89.476-59.65 24.854-24.854 44.738-54.68 59.65-89.476 9.942-29.825 19.883-69.592 24.854-119.301 0-44.738 0-64.621 0-198.835s0-154.097-4.971-203.806c0-54.68-9.942-89.476-24.854-119.301-14.913-34.796-29.825-64.621-59.65-89.476-24.854-24.854-54.68-44.738-89.476-59.65-29.825-9.942-69.592-19.883-119.301-24.854-44.738 0-64.621 0-198.835 0s-154.097 0-203.806 4.971c-54.68 0-89.476 9.942-119.301 24.854-34.796 14.913-64.621 29.825-89.476 59.65-24.854 24.854-44.738 54.68-59.65 89.476-9.942 29.825-19.883 69.592-24.854 119.301 0 44.738 0 64.621 0 198.835s0 154.097 4.971 203.806 9.942 89.476 24.854 119.301c14.913 34.796 29.825 64.621 59.65 89.476 24.854 24.854 54.68 44.738 89.476 59.65 29.825 9.942 69.592 19.883 119.301 24.854 44.738 0 64.621 0 198.835 0zM516.971 696.544c-139.184 0-248.544-109.359-248.544-248.544s109.359-248.544 248.544-248.544 248.544 109.359 248.544 248.544-109.359 248.544-248.544 248.544zM840.078 706.485c0 34.796-29.825 64.621-64.621 64.621s-59.65-29.825-59.65-64.621 29.825-59.65 64.621-59.65c34.796 0 59.65 29.825 59.65 59.65zM516.971 597.126c84.505 0 149.126-64.621 149.126-149.126s-64.621-149.126-149.126-149.126-149.126 64.621-149.126 149.126 64.621 149.126 149.126 149.126z" />
<glyph unicode="&#xe906;" glyph-name="linkedin-box" d="M914.994 960h-805.987c-59.458 0-109.006-49.548-109.006-109.006v-802.684c0-62.761 49.548-112.31 109.006-112.31h802.684c59.458 0 109.006 49.548 109.006 109.006v805.987c3.303 59.458-46.245 109.006-105.703 109.006zM313.806 104.465h-155.252v465.755h155.252v-465.755zM300.594 656.103c-16.516-16.516-39.639-23.123-66.065-23.123v0c-26.426 0-46.245 6.606-62.761 23.123s-23.123 36.335-23.123 59.458c0 23.123 9.91 42.942 23.123 56.155 16.516 16.516 39.639 23.123 66.065 23.123s46.245-6.606 62.761-23.123c16.516-16.516 23.123-36.335 23.123-56.155 0-23.123-9.91-42.942-23.123-59.458zM872.052 104.465h-155.252v247.742c0 69.368-26.426 105.703-79.277 105.703-16.516 0-36.335-6.606-49.548-16.516s-23.123-23.123-29.729-39.639c-3.303-6.606-3.303-19.819-3.303-36.335v-260.955h-155.252c0 280.774 0 436.026 0 465.755h155.252v-66.065c33.032 49.548 79.277 75.974 138.735 75.974 52.852 0 95.794-16.516 128.826-52.852s49.548-85.884 49.548-155.252v-267.561z" />
<glyph unicode="&#xe907;" glyph-name="mail-line" horiz-adv-x="1317" d="M1316.571 784.457v0c-3.657 43.886-25.6 87.771-54.857 117.029-36.571 36.571-84.114 58.514-135.314 58.514h-936.229c-51.2 0-98.743-18.286-131.657-58.514-32.914-29.257-54.857-73.143-58.514-117.029v0c0-3.657 0-3.657 0-7.314s0-7.314 0-7.314v-640c0-51.2 18.286-98.743 58.514-135.314 36.571-36.571 84.114-58.514 135.314-58.514h932.571c51.2 0 98.743 18.286 135.314 58.514 36.571 36.571 54.857 84.114 54.857 135.314v636.343c0 3.657 0 7.314 0 7.314s0 7.314 0 10.971zM190.171 894.171h932.571c32.914 0 65.829-14.629 87.771-36.571s32.914-47.543 36.571-76.8c0-29.257-10.971-51.2-36.571-73.143-36.571-32.914-486.4-329.143-552.229-332.8v0c-58.514 0-512 288.914-555.886 332.8-21.943 21.943-32.914 43.886-36.571 73.143 3.657 29.257 14.629 58.514 36.571 76.8 21.943 25.6 54.857 40.229 87.771 36.571zM1214.171 38.4v0c-25.6-25.6-54.857-36.571-87.771-36.571h-936.229c-32.914 0-62.171 10.971-87.771 36.571s-36.571 54.857-36.571 91.429v522.971c54.857-43.886 501.029-343.771 599.771-343.771h3.657c91.429 3.657 530.286 303.543 585.143 343.771v-526.629c-3.657-32.914-14.629-62.171-40.229-87.771v0z" />
<glyph unicode="&#xe908;" glyph-name="map-pin-line" horiz-adv-x="683" d="M582.542 857.6c-65.991 68.267-147.911 102.4-241.209 102.4s-175.218-34.133-241.209-102.4-100.124-150.187-100.124-245.76c0-50.062 6.827-91.022 22.756-122.88l229.831-496.071c6.827-18.204 20.48-31.858 36.409-43.236 31.858-20.48 72.818-20.48 104.676 0 15.929 9.102 29.582 25.031 36.409 40.96l229.831 498.347c15.929 31.858 22.756 72.818 22.756 122.88 0 95.573-34.133 177.493-100.124 245.76zM625.778 504.889l-229.831-496.071c-4.551-11.378-13.653-18.204-22.756-25.031-20.48-13.653-45.511-13.653-65.991 0-9.102 6.827-18.204 13.653-22.756 25.031l-227.556 496.071c-11.378 27.307-18.204 63.716-18.204 106.951 0 86.471 29.582 157.013 88.747 218.453s129.707 91.022 213.902 91.022 154.738-29.582 213.902-91.022v0c59.164-61.44 88.747-131.982 88.747-218.453 0-43.236-6.827-79.644-18.204-106.951zM341.333 796.16c-50.062 0-93.298-18.204-127.431-54.613s-52.338-79.644-52.338-129.707 18.204-93.298 52.338-129.707c34.133-36.409 77.369-54.613 127.431-54.613s93.298 18.204 127.431 54.613c34.133 36.409 52.338 79.644 52.338 129.707s-18.204 93.298-52.338 129.707c-34.133 36.409-77.369 54.613-127.431 54.613zM441.458 509.44c-27.307-27.307-61.44-43.236-100.124-43.236s-72.818 13.653-100.124 43.236-40.96 61.44-40.96 102.4 13.653 72.818 40.96 102.4 61.44 40.96 100.124 40.96c38.684 0 72.818-13.653 100.124-43.236s40.96-61.44 40.96-102.4-13.653-70.542-40.96-100.124v0z" />
<glyph unicode="&#xe909;" glyph-name="smartphone-fill" d="M512 145.067c-17.067 0-34.133-12.8-34.133-34.133 0-8.533 4.267-17.067 8.533-21.333 0 0 0 0 0 0 12.8-12.8 34.133-12.8 42.667 0 0 0 0 0 0 0 12.8 12.8 12.8 34.133 0 46.933 0 8.533-8.533 8.533-17.067 8.533zM678.4 870.4h-332.8c-64 0-110.933-51.2-110.933-110.933v-618.667c0-64 51.2-115.2 110.933-115.2h328.533c64 0 115.2 51.2 115.2 115.2v618.667c0 59.733-51.2 110.933-110.933 110.933zM465.067 827.733h93.867v-29.867h-93.867v29.867zM554.667 68.267c-25.6-25.6-64-25.6-89.6 0s-25.6 64 0 89.6v0c25.6 25.6 64 25.6 89.6 0 0 0 0 0 0 0 25.6-25.6 25.6-64 0-89.6zM704 260.267c0-8.533-4.267-21.333-12.8-25.6v0c-8.533-8.533-17.067-12.8-29.867-12.8h-302.933c-8.533 0-21.333 4.267-29.867 12.8s-12.8 17.067-12.8 25.6v469.333c0 8.533 4.267 21.333 12.8 25.6 12.8 8.533 21.333 12.8 29.867 12.8h302.933c8.533 0 21.333-4.267 25.6-12.8 8.533-8.533 12.8-17.067 12.8-29.867v-465.067z" />
<glyph unicode="&#xe90a;" glyph-name="smartphone-line" horiz-adv-x="637" d="M600.747 925.867c-22.756 22.756-52.338 34.133-84.196 34.133h-395.947c-34.133 0-61.44-11.378-84.196-34.133s-36.409-52.338-36.409-84.196v-787.342c0-31.858 11.378-59.164 36.409-84.196 22.756-22.756 52.338-34.133 84.196-34.133h398.222c31.858 0 61.44 11.378 84.196 34.133s36.409 50.062 36.409 84.196v787.342c-2.276 31.858-13.653 59.164-38.684 84.196zM596.196 54.329c0-20.48-6.827-38.684-22.756-54.613s-34.133-22.756-56.889-22.756h-395.947c-20.48 0-40.96 6.827-56.889 22.756s-22.756 34.133-22.756 54.613v787.342c0 20.48 6.827 38.684 22.756 54.613s34.133 22.756 56.889 22.756h398.222c20.48 0 40.96-6.827 56.889-22.756v0c15.929-15.929 22.756-34.133 22.756-54.613v-787.342zM380.018 862.151h-125.156v-38.684h125.156v38.684zM261.689 129.422c-31.858-31.858-31.858-81.92 0-113.778 0 0 0 0 0 0 31.858-31.858 84.196-31.858 116.053 0 0 0 0 0 0 0 31.858 31.858 31.858 81.92 0 113.778 0 0 0 0 0 0-34.133 31.858-86.471 31.858-116.053 0zM348.16 42.951c-15.929-15.929-43.236-15.929-59.164 0 0 0 0 0 0 0-15.929 15.929-15.929 43.236 0 59.164 6.827 6.827 18.204 11.378 29.582 11.378 22.756 0 43.236-18.204 43.236-40.96 0-11.378-4.551-22.756-13.653-29.582v0zM491.52 796.16h-345.884c-11.378 0-22.756-4.551-31.858-13.653-6.827-9.102-13.653-18.204-13.653-31.858v-527.929c0-11.378 4.551-22.756 13.653-31.858s20.48-13.653 31.858-13.653h345.884c11.378 0 22.756 4.551 31.858 13.653v0c9.102 9.102 13.653 18.204 13.653 31.858v527.929c0 11.378-4.551 22.756-13.653 31.858s-20.48 13.653-31.858 13.653zM496.071 222.72c0 0 0-2.276-2.276-2.276l-2.276-2.276h-345.884l-4.551 4.551v527.929l4.551 4.551h343.609l4.551-4.551v-527.929z" />
<glyph unicode="&#xe90b;" glyph-name="twitter-box" d="M853.333 832h-682.667c-25.6 0-42.667-21.333-42.667-42.667v-682.667c0-21.333 17.067-42.667 42.667-42.667h682.667c21.333 0 42.667 21.333 42.667 42.667v682.667c0 21.333-21.333 42.667-42.667 42.667zM797.867 597.333c0-4.267 0-12.8 0-17.067 0-196.267-149.333-422.4-422.4-422.4-81.067 0-157.867 21.333-226.133 68.267 76.8-8.533 157.867 12.8 221.867 59.733-64 0-119.467 42.667-140.8 102.4 21.333-4.267 46.933-4.267 68.267 4.267-68.267 8.533-119.467 68.267-119.467 140.8v0c21.333-12.8 42.667-17.067 68.267-17.067-42.667 25.6-68.267 72.533-68.267 123.733 0 25.6 8.533 51.2 21.333 76.8 76.8-93.867 187.733-149.333 307.2-153.6-12.8 51.2 4.267 106.667 42.667 140.8 59.733 55.467 153.6 51.2 209.067-8.533 34.133 4.267 64 17.067 93.867 34.133-12.8-34.133-34.133-64-64-81.067 29.867 4.267 59.733 12.8 85.333 21.333v0c-21.333-25.6-46.933-51.2-76.8-72.533z" />
<glyph unicode="&#xe90c;" glyph-name="whatsapp-fill" d="M678.4 375.467l-21.333 8.533c0 0-29.867 12.8-46.933 21.333 0 0-4.267 0-4.267 0-4.267 0-8.533 0-12.8-4.267v0c0 0-4.267 0-29.867-34.133-4.267-4.267-8.533-4.267-12.8-4.267s-4.267 0-8.533 4.267c-4.267 0-4.267 4.267-8.533 4.267v0c-21.333 8.533-38.4 21.333-55.467 34.133-4.267 4.267-8.533 8.533-12.8 12.8-12.8 12.8-25.6 29.867-34.133 42.667v4.267c0 4.267-4.267 4.267-4.267 8.533s4.267 8.533 4.267 8.533 8.533 8.533 12.8 12.8c4.267 4.267 4.267 8.533 8.533 12.8 4.267 8.533 4.267 12.8 4.267 17.067-8.533 25.6-21.333 46.933-29.867 72.533 0 4.267-8.533 8.533-12.8 8.533 0 0-4.267 0-4.267 0-4.267 0-8.533 0-12.8 0v0c-4.267 0-8.533 0-12.8-4.267-17.067 4.267-17.067 4.267-21.333 0s-8.533-8.533-8.533-12.8c-12.8-17.067-21.333-38.4-21.333-55.467s4.267-34.133 12.8-51.2c12.8-29.867 38.4-64 68.267-93.867 8.533-8.533 12.8-17.067 21.333-21.333 38.4-34.133 85.333-59.733 132.267-72.533l21.333-4.267c8.533 0 12.8 0 21.333 0s21.333 4.267 29.867 8.533c4.267 4.267 8.533 4.267 12.8 8.533 0 0 0 0 4.267 4.267s8.533 4.267 12.8 8.533c4.267 4.267 4.267 8.533 8.533 8.533 4.267 4.267 4.267 17.067 8.533 25.6 0 8.533 0 12.8 0 12.8-4.267 4.267-8.533 8.533-8.533 8.533zM853.333 832h-682.667c-21.333 0-42.667-21.333-42.667-42.667v-682.667c0-21.333 21.333-42.667 42.667-42.667h682.667c21.333 0 42.667 21.333 42.667 42.667v682.667c0 21.333-21.333 42.667-42.667 42.667zM512 98.133c-59.733 0-123.733 17.067-174.933 46.933l-174.933-46.933 46.933 174.933c-29.867 55.467-46.933 115.2-46.933 174.933 0 192 157.867 349.867 349.867 349.867s349.867-157.867 349.867-349.867-157.867-349.867-349.867-349.867z" />
<glyph unicode="&#xe90d;" glyph-name="youtube-fill" d="M857.6 832h-682.667c-21.333 0-42.667-21.333-42.667-42.667v-682.667c0-21.333 21.333-42.667 42.667-42.667h682.667c21.333 0 42.667 21.333 42.667 42.667v682.667c0 21.333-21.333 42.667-42.667 42.667zM823.467 268.8c-8.533-34.133-34.133-59.733-59.733-64-55.467-17.067-247.467-17.067-247.467-17.067s-192 0-247.467 17.067c-29.867 8.533-55.467 34.133-59.733 64-17.067 59.733-17.067 179.2-17.067 179.2s0 119.467 17.067 179.2c8.533 34.133 34.133 59.733 59.733 64 55.467 17.067 247.467 17.067 247.467 17.067s192 0 247.467-17.067c29.867-8.533 55.467-34.133 59.733-64 17.067-59.733 17.067-179.2 17.067-179.2s0-119.467-17.067-179.2zM409.6 324.267l213.333 123.733-213.333 123.733z" />
<glyph unicode="&#xe90f;" glyph-name="arborescence" horiz-adv-x="1501" d="M1465.863 355.517h-251.090v92.356c0 0.008 0 0.018 0 0.028 0 19.252-15.606 34.858-34.858 34.858-0.015 0-0.030 0-0.044 0h-395.416v57.512h251.090c0.012 0 0.027 0 0.042 0 19.273 0 34.898 15.616 34.914 34.885v349.901c-0.016 19.271-15.641 34.886-34.914 34.886-0.015 0-0.030 0-0.044 0h-570.324c-0.012 0-0.027 0-0.042 0-19.276 0-34.904-15.614-34.928-34.884v-349.929c0.024-19.272 15.653-34.886 34.928-34.886 0.015 0 0.030 0 0.044 0h249.307v-57.512h-384.8c-0.012 0-0.027 0-0.042 0-19.273 0-34.898-15.616-34.914-34.885v-92.358h-259.942c-0.012 0-0.027 0-0.042 0-19.276 0-34.904-15.614-34.928-34.884v-349.972c0.024-19.272 15.653-34.886 34.928-34.886 0.015 0 0.030 0 0.044 0h570.31c0.012 0 0.027 0 0.042 0 19.273 0 34.898 15.616 34.914 34.885v350c-0.016 19.271-15.641 34.886-34.914 34.886-0.015 0-0.030 0-0.044 0h-240.427v57.512h780.218v-57.512h-249.323c-0.012 0-0.027 0-0.042 0-19.276 0-34.904-15.614-34.928-34.884v-350c0.024-19.272 15.653-34.886 34.928-34.886 0.015 0 0.030 0 0.044 0h570.253c0.025 0 0.055 0 0.084 0 19.287 0 34.928 15.607 34.984 34.881v350.003c-0.056 19.279-15.697 34.886-34.984 34.886-0.030 0-0.059 0-0.089 0h0.005zM500.175 890.186h500.385v-280.169h-500.385v280.169zM570.172 5.576h-500.385v280.169h500.385v-280.169zM1430.935 5.576h-500.371v280.169h500.371v-280.169z" />
<glyph unicode="&#xe910;" glyph-name="board" horiz-adv-x="989" d="M523.037 100.262v-130.248c0.004-0.193 0.006-0.422 0.006-0.65 0-18.73-15.184-33.914-33.914-33.914s-33.914 15.184-33.914 33.914c0 0.229 0.002 0.457 0.007 0.684l-0.001-0.034v130.049l-193.328-137.764c-36.843-26.249-76.155 29.091-39.311 55.34l232.639 165.77v18.085h-347.669c-18.728 0.021-33.902 15.208-33.902 33.939 0 0.009 0 0.018 0 0.026v-0.001 483.514h-39.748c-18.728 0.021-33.902 15.208-33.902 33.939 0 0.031 0 0.061 0 0.092v-0.005 172.875c0 0.007 0 0.016 0 0.025 0 18.731 15.174 33.918 33.9 33.939h921.212c18.73-0.028 33.902-15.218 33.902-33.952 0-0.004 0-0.009 0-0.013v0.001-172.875c0-0.004 0-0.008 0-0.013 0-18.734-15.172-33.923-33.899-33.952h-41.009v-483.601c0-0.004 0-0.008 0-0.013 0-18.734-15.172-33.923-33.899-33.952h-357.17v-17.886l232.926-165.97c36.831-26.249-2.493-81.589-39.311-55.34zM107.551 786.951h813.659v104.984h-853.394v-104.984h39.735zM141.466 719.035v-449.612h704.836v449.549h-704.836z" />
<glyph unicode="&#xe911;" glyph-name="book" horiz-adv-x="1403" d="M1309.664 827.49h-62.422v99.396c0.017 0.12 0.026 0.258 0.026 0.399 0 1.164-0.65 2.177-1.607 2.694l-0.016 0.008c0.018 0.126 0.028 0.272 0.028 0.42 0 1.127-0.591 2.115-1.479 2.673l-0.013 0.008c-0.837 0.808-1.414 1.882-1.594 3.085l-0.004 0.030c0 1.544-1.597 1.544-1.597 3.101l-1.597 1.557-1.464 1.544-1.597 1.557c-0.806 0.802-1.856 1.36-3.029 1.553l-0.032 0.004c-1.597 0-1.597 1.544-3.194 1.544s-1.464 1.557-3.061 1.557h-3.194c-0.104-0.012-0.224-0.019-0.345-0.019-1.157 0-2.167 0.628-2.708 1.561l-0.008 0.015c-34.536 5.865-74.319 9.218-114.885 9.218-150.929 0-291.020-46.405-406.783-125.725l2.46 1.592c-112.006 78.169-250.999 124.899-400.907 124.899-41.791 0-82.734-3.632-122.531-10.597l4.23 0.613c-1.597 0-3.194 0-3.194-1.557h-3.061c-1.597 0-1.597-1.557-3.061-1.557-0.126 0.017-0.272 0.027-0.42 0.027-1.172 0-2.199-0.624-2.766-1.557l-0.008-0.014c-0.016 0.001-0.035 0.001-0.053 0.001-0.853 0-1.544-0.691-1.544-1.544 0-0.005 0-0.010 0-0.015v0.001c-1.464 0-1.464-1.557-3.061-1.557l-1.597-1.544-1.464-1.557c-0.836-0.804-1.412-1.873-1.593-3.071l-0.004-0.030c0-1.557-1.597-1.557-1.597-3.114 0.016-0.118 0.025-0.253 0.025-0.391 0-1.166-0.649-2.181-1.606-2.702l-0.016-0.008c0.018-0.126 0.028-0.272 0.028-0.42 0-1.127-0.591-2.115-1.479-2.673l-0.013-0.008v-99.396h-62.422c-0.084 0-0.182 0-0.281 0-50.939 0-92.343-40.822-93.284-91.536l-0.001-0.088v-708.15c0.38-50.681 41.552-91.619 92.286-91.619 0.45 0 0.899 0.003 1.348 0.010l-0.068-0.001h1216.231c0.056 0 0.123 0 0.19 0 50.953 0 92.375 40.803 93.375 91.517l0.001 0.093v706.606c-0.302 51.473-42.061 93.092-93.559 93.167h-0.007zM93.433-3.335c-17.162 0.015-31.076 13.897-31.144 31.045v706.613c0.068 17.154 13.983 31.036 31.143 31.051h62.423v-677.099c0.35-9.267 4.48-17.505 10.884-23.265l0.030-0.027c4.897-4.325 11.371-6.965 18.461-6.965 2.28 0 4.497 0.273 6.619 0.788l-0.191-0.039c31.278 5.246 67.314 8.244 104.050 8.244 108.187 0 210.302-26 300.436-72.093l-3.734 1.734h-498.977zM670.404 23.058c-106.744 66.016-236.171 105.137-374.735 105.137-27.31 0-54.265-1.52-80.786-4.479l3.261 0.296v768.695c24.233 3.206 52.254 5.035 80.701 5.035 139.086 0 267.957-43.737 373.61-118.207l-2.051 1.371v-757.848zM732.693 780.906c103.581 73.094 232.43 116.829 371.494 116.829 28.424 0 56.421-1.827 83.88-5.37l-3.247 0.342v-768.709c-23.25 2.663-50.193 4.182-77.492 4.182-138.53 0-267.924-39.12-377.735-106.917l3.1 1.781v757.861zM1340.808 26.172c-0.060-17.16-13.978-31.050-31.143-31.065h-498.978c86.298 44.401 188.315 70.429 296.411 70.429 36.841 0 72.976-3.023 108.17-8.835l-3.829 0.522c1.474-0.229 3.174-0.359 4.904-0.359 7.523 0 14.47 2.468 20.074 6.639l-0.090-0.064c6.678 5.121 10.94 13.102 10.94 22.080 0 0.426-0.010 0.85-0.029 1.272l0.002-0.060v678.629h62.422c17.162-0.015 31.076-13.897 31.144-31.045v-708.157z" />
<glyph unicode="&#xe912;" glyph-name="doc" horiz-adv-x="737" d="M129.593 530.83c0-0.007 0-0.015 0-0.023 0-14.769 11.97-26.743 26.737-26.749h424.164c14.559 0.31 26.243 12.185 26.243 26.789s-11.684 26.479-26.214 26.788h-424.193c-14.772-0.026-26.738-12.007-26.738-26.783 0-0.008 0-0.016 0-0.024v0.001zM580.494 178.927h-424.164c-14.559-0.31-26.243-12.185-26.243-26.789s11.684-26.479 26.214-26.788h424.193c14.559 0.31 26.243 12.185 26.243 26.789s-11.684 26.479-26.214 26.788h-0.029zM728.974 739.408l-212.196 213.049c-4.797 4.64-11.334 7.507-18.541 7.532h-471.614c-7.153-0.2-13.546-3.297-18.077-8.154l-0.014-0.015c-4.963-4.725-8.162-11.263-8.531-18.548l-0.003-0.066v-970.411c0.533-14.518 12.122-26.162 26.567-26.781l0.057-0.002h683.463c14.546 0.573 26.19 12.233 26.736 26.732l0.002 0.051v757.385c0 0.020 0 0.044 0 0.068 0 7.467-2.997 14.234-7.854 19.164l0.003-0.003zM524.743 746.974v121.742l121.173-121.742h-121.173zM498.005 693.396h185.458v-703.807h-630.101v916.81h418.020v-186.22c0.499-14.532 12.107-26.195 26.57-26.782l0.054-0.002zM580.494 368.299h-424.164c-14.565-0.31-26.254-12.19-26.254-26.8s11.689-26.491 26.225-26.8h424.193c14.565 0.31 26.254 12.19 26.254 26.8s-11.689 26.491-26.225 26.8h-0.029z" />
<glyph unicode="&#xe913;" glyph-name="faq" horiz-adv-x="1245" d="M444.051 959.974c-114.947 0-225.38-32.807-309.236-94.035s-134.686-148.103-134.686-240.835c1.367-73.296 30.437-139.548 77.144-188.952l-0.125 0.134-69.149-91.726c-4.955-6.507-7.939-14.749-7.939-23.688 0-12.683 6.006-23.963 15.33-31.15l0.092-0.068c6.445-4.976 14.638-7.975 23.531-7.975 3.326 0 6.554 0.42 9.635 1.209l-0.268-0.058 187.193 46.818c61.331-24.884 132.474-39.324 206.989-39.324 0.478 0 0.957 0.001 1.435 0.002h0.055c23.768 0.116 47.059 1.612 69.946 4.414l-2.861-0.285v-162.423c0-0.038 0-0.084 0-0.13 0-21.488 17.361-38.921 38.821-39.038h480.442l147.974-145.587c6.973-6.892 16.563-11.15 27.148-11.15 10.916 0 20.774 4.528 27.799 11.809l0.011 0.012c6.861 7.081 11.092 16.747 11.095 27.401v620.769c0 0.038 0 0.084 0 0.13 0 21.488-17.361 38.921-38.821 39.038h-318.277c-3.612 88.875-53.281 171.699-134.17 230.656-83.856 61.228-194.288 94.035-309.107 94.035zM444.051 881.549c99.982 0 195.578-29.44 263.566-79.096s102.563-113.27 102.563-177.349c-0.096-7.381-0.609-14.536-1.517-21.567l0.098 0.926c-0.258-0.98-0.387-1.974-0.645-2.98-13.675-100.098-115.334-192.934-265.631-222.787-0.258-0.077-0.645-0.155-1.032-0.232-29.242-6.136-62.878-9.696-97.329-9.792h-0.073c-0.47-0.002-1.026-0.003-1.583-0.003-68.093 0-132.913 14.011-191.735 39.307l3.158-1.208c-4.501 1.995-9.751 3.156-15.273 3.156-3.327 0-6.556-0.422-9.635-1.214l0.267 0.058-92.758-23.106 23.093 30.524c4.913 6.501 7.868 14.72 7.868 23.629 0 11.542-4.962 21.926-12.869 29.134l-0.031 0.028c-51.217 46.443-76.632 101.131-76.761 156.218 0.129 64.079 34.575 127.616 102.692 177.272s163.584 79.083 263.566 79.083zM878.684 556.949h287.949v-488.649l-93.274 91.816c-6.977 6.852-16.55 11.082-27.111 11.082-0.039 0-0.077 0-0.116 0h-457.204v137.563c54.883 14.094 103.076 35.577 146.534 63.745l-1.914-1.163c1.419 0.955 2.967 1.935 4.386 2.903 5.031 3.38 10.321 6.528 15.223 10.101 7.354 5.393 14.191 11.211 21.029 16.978 0.774 0.606 1.548 1.161 2.193 1.767 23.129 19.692 43.282 41.803 60.405 66.196l0.746 1.121c1.677 2.58 3.225 5.16 4.902 7.805 5.957 8.905 11.925 19.279 17.212 30.047l0.721 1.625c1.032 2.025 1.935 4.012 2.967 6.051 5.471 11.349 10.694 24.956 14.848 39.022l0.504 1.99z" />
<glyph unicode="&#xe914;" glyph-name="hp" horiz-adv-x="1512" d="M1061.161 959.725c-3.157-0.367-6.035-1.106-8.742-2.181l0.231 0.081-509.852-201.209-421.17 1.689c-0.022 0-0.048 0-0.074 0-66.129 0-119.812-53.285-120.456-119.261v-0.061l-1.098-273.829c0.084-66.144 53.482-119.788 119.524-120.269h0.046l51.342-0.206-0.824-222.487c-0.053-1.1-0.083-2.389-0.083-3.686 0-45.445 36.84-82.285 82.285-82.285 1.12 0 2.235 0.022 3.344 0.067l-0.159-0.005 68.639-0.275c1.122-0.055 2.437-0.086 3.76-0.086 45.49 0 82.367 36.877 82.367 82.367 0 1.039-0.019 2.074-0.057 3.104l0.004-0.149 0.824 222.473 130.689-0.522 507.243-204.709c3.845-1.619 8.315-2.56 13.005-2.56 14.253 0 26.477 8.689 31.664 21.058l0.084 0.226c1.563 3.715 2.471 8.034 2.471 12.565 0 0.023 0 0.046 0 0.068v-0.004l1.785 427.855 1.647 427.855c0.001 0.115 0.002 0.25 0.002 0.386 0 18.794-15.143 34.051-33.892 34.236h-0.018c-0.134 0.002-0.291 0.003-0.449 0.003-1.438 0-2.856-0.091-4.246-0.267l0.165 0.017zM1473.545 907.271c-5.624-0.611-10.709-2.498-15.094-5.365l0.131 0.080-275.106-170.033c-9.654-6.201-15.958-16.885-15.958-29.040 0-19 15.402-34.402 34.402-34.402 6.521 0 12.618 1.814 17.814 4.965l-0.153-0.086s0.137 0.082 0.137 0.124l275.106 170.047c10.231 6.067 16.982 17.054 16.982 29.618 0 18.954-15.365 34.32-34.32 34.32-1.389 0-2.758-0.082-4.103-0.243l0.163 0.016zM1030.823 875.354l-1.51-377.515-1.51-377.035-445.056 179.835 1.51 398.437zM121.354 689.658l222.803-0.892-1.51-376.513-222.803 0.892c-0.198-0.003-0.432-0.004-0.666-0.004-27.992 0-50.683 22.692-50.683 50.683 0 0.306 0.003 0.611 0.008 0.915l-0.001-0.046 1.098 273.815c-0.002 0.15-0.003 0.328-0.003 0.506 0 27.976 22.679 50.656 50.656 50.656 0.387 0 0.773-0.004 1.158-0.013l-0.057 0.001zM412.796 688.491l102.821-0.412-1.51-376.513-102.821 0.412zM1197.753 531.321c-0.168 0.003-0.367 0.005-0.565 0.005-18.954 0-34.32-15.365-34.32-34.32s15.365-34.32 34.32-34.32c1.166 0 2.318 0.058 3.454 0.172l-0.006-0.012 274.419-1.098c0.273-0.008 0.593-0.012 0.915-0.012 18.909 0 34.237 15.329 34.237 34.237 0 18.796-15.146 34.054-33.899 34.236h-0.978l-274.419 1.098c-1.098 0.055-2.059 0.069-3.157 0.014zM1198.577 326.488c-18.65-0.288-33.658-15.473-33.658-34.165 0-12.454 6.663-23.351 16.618-29.323l0.155-0.086 273.596-172.229c5.195-3.322 11.53-5.295 18.327-5.295 18.978 0 34.364 15.385 34.364 34.364 0 12.182-6.339 22.884-15.898 28.986l-0.138 0.083-273.596 172.229c-5.247 3.422-11.67 5.457-18.569 5.457-0.422 0-0.842-0.008-1.26-0.023l0.061 0.002zM239.551 244.204l102.821-0.412-0.824-222.473c0.055-0.521 0.086-1.125 0.086-1.737 0-4.216-1.483-8.086-3.955-11.117l0.025 0.032c-2.654-2.775-6.386-4.499-10.521-4.499-0.989 0-1.955 0.099-2.888 0.287l0.093-0.016-68.639 0.275c-0.82-0.164-1.763-0.258-2.727-0.258-4.172 0-7.932 1.759-10.582 4.575l-0.007 0.008c-2.382 2.938-3.825 6.722-3.825 10.844 0 0.712 0.043 1.413 0.127 2.102l-0.008-0.083z" />
<glyph unicode="&#xe915;" glyph-name="hub" horiz-adv-x="988" d="M814.461 353.337c-15.288 3.992-32.84 6.285-50.927 6.285-25.771 0-50.454-4.653-73.257-13.166l1.447 0.473-68.662 118.549 54.909 90.646c25.95-12.259 56.371-19.415 88.464-19.415 98.775 0 181.716 67.791 204.834 159.385l0.312 1.459c3.861 15.104 6.077 32.444 6.077 50.302 0 116.651-94.565 211.216-211.216 211.216s-211.216-94.565-211.216-211.216c0-61.538 26.317-116.929 68.31-155.533l0.152-0.137-57.409-94.689-166.914-8.898c-35.956 68.294-106.444 114.063-187.622 114.063-116.72 0-211.341-94.621-211.341-211.341s94.621-211.341 211.341-211.341c98.808 0 181.779 67.807 204.918 159.428l0.312 1.459c3.95 15.257 6.217 32.772 6.217 50.816 0 11.586-0.935 22.953-2.733 34.031l0.162-1.213 146.493 7.804 67.724-116.809c-50.388-39.078-82.507-99.631-82.507-167.685 0-116.801 94.611-211.504 211.377-211.654h0.014c116.757 0.234 211.316 94.937 211.316 211.726 0 98.769-67.63 181.742-159.108 205.137l-1.466 0.318zM624.313 783.49c15.88 64.955 73.581 112.405 142.364 112.405 80.831 0 146.357-65.526 146.357-146.357 0-12.925-1.675-25.459-4.821-37.396l0.228 1.020c-15.88-64.955-73.581-112.405-142.364-112.405-80.831 0-146.357 65.526-146.357 146.357 0 12.925 1.675 25.459 4.821 37.396l-0.228-1.020zM353.833 356.463v0c-16.44-64.137-73.728-110.786-141.912-110.786-80.791 0-146.284 65.494-146.284 146.284 0 80.645 65.258 146.049 145.849 146.284h0.022c80.969 0 146.607-65.638 146.607-146.607 0-12.489-1.562-24.614-4.5-36.189l0.218 1.014zM905.837 112.656c-16.383-64.254-73.74-111.010-142.017-111.010-80.825 0-146.347 65.522-146.347 146.347 0 52.877 28.043 99.204 70.068 124.92l0.64 0.364c21.458 13.272 47.475 21.138 75.329 21.14h0.001c12.586-0.018 24.794-1.601 36.45-4.566l-1.025 0.221c64.354-16.4 111.186-73.843 111.186-142.223 0-12.492-1.563-24.619-4.504-36.196l0.218 1.013z" />
<glyph unicode="&#xe916;" glyph-name="members" horiz-adv-x="1485" d="M1328.433 495.854c39.42 31.642 64.441 79.824 64.441 133.85 0 94.568-76.662 171.23-171.23 171.23s-171.23-76.662-171.23-171.23c0-53.488 24.525-101.248 62.944-132.648l0.306-0.243c-39.968-20.262-73.168-48.563-98.531-82.994l-0.532-0.757c-38.346 43.908-85.696 78.933-139.274 102.364l-2.531 0.986c66.28 43.454 109.448 117.397 109.448 201.423 0 132.586-107.482 240.069-240.069 240.069s-240.069-107.482-240.069-240.069c0-84.138 43.284-158.167 108.799-201.034l0.916-0.563c-56.306-24.628-103.796-59.934-141.791-103.704l-0.413-0.486c-25.819 35.364-58.98 63.823-97.381 83.509l-1.549 0.721c39.159 31.651 63.992 79.68 63.992 133.51 0 94.59-76.68 171.27-171.27 171.27s-171.27-76.68-171.27-171.27c0-53.673 24.689-101.579 63.329-132.982l0.316-0.249c-93.204-48.351-155.786-144.114-155.786-254.494 0-0.2 0-0.399 0.001-0.599v0.031c0-148.622 139.94-148.622 263.37-148.622 44.339 0 78.026 1.518 105.987 3.994 26.364-160.472 201.722-160.871 373.218-160.871s346.988 0.399 373.218 161.018c28.228-2.57 62.447-4.141 107.585-4.141 123.43 0 263.37 0 261.772 148.622-1.39 110.186-63.901 205.454-155.132 253.593l-1.585 0.762zM1221.647 735.257c0.111 0 0.242 0.001 0.373 0.001 58.373 0 105.694-47.321 105.694-105.694s-47.321-105.694-105.694-105.694c-58.373 0-105.694 47.321-105.694 105.694 0 0.004 0 0.009 0 0.013v-0.001c0.358 58.095 47.255 105.119 105.268 105.68h0.053zM568.016 718.746c0.28 96.194 78.325 174.066 174.558 174.066 96.406 0 174.559-78.153 174.559-174.559s-78.152-174.559-174.558-174.559v0c-96.251 0.81-174.029 78.76-174.559 175.001v0.051zM263.37 735.257c0.111 0 0.242 0.001 0.373 0.001 58.373 0 105.694-47.321 105.694-105.694s-47.321-105.694-105.694-105.694c-58.373 0-105.694 47.321-105.694 105.694 0 0.004 0 0.009 0 0.013v-0.001c0.358 58.095 47.255 105.119 105.268 105.68h0.053zM65.909 241.498c0 113.949 92.139 214.677 197.461 214.677 64.178 0 126.625-37.854 164.44-100.421-6.849-10.969-14.168-24.301-20.806-38.024l-1.163-2.667c-1.598-3.275-3.062-6.564-4.527-9.88-2.796-6.231-5.459-12.489-7.989-18.881-0.533-1.411-1.065-2.836-1.465-4.261-13.739-35.301-22.804-76.144-25.249-118.761l-0.049-1.074c-26.23-1.651-58.985-3.275-103.191-3.275-162.975 0-197.461 14.859-197.461 82.566zM742.575 2.055c-237.139 0-311.171 19.813-311.171 138.715 0 179.992 144.867 336.868 311.171 336.868 92.938 0 179.086-49.066 237.139-123.723l-0.133-0.133 11.584-16.511c23.669-34.354 42.096-74.452 52.978-117.553l0.548-2.561c0-0.306 0.133-0.599 0.133-0.892 1.598-6.498 2.796-13.035 3.861-19.573 0.799-4.434 1.465-8.868 1.997-13.315s1.198-8.881 1.598-13.315c0.799-9.68 1.465-19.427 1.465-29.293 0-118.903-74.164-138.715-311.171-138.715zM1223.378 158.932c-6.836-0.185-14.884-0.29-22.957-0.29-28.434 0-56.564 1.304-84.333 3.856l3.566-0.265c-1.642 21.009-4.379 40.067-8.24 58.714l0.518-2.991c-0.399 1.744-0.799 3.449-1.198 5.18q-3.395 15.858-7.989 31.517c-0.399 1.331-0.666 2.809-1.198 4.194-3.462 11.584-7.59 23.035-12.25 34.393-0.399 0.852-0.666 1.691-1.065 2.556-9.912 23.83-20.349 43.962-32.23 63.104l1.073-1.855c37.814 61.102 100.395 99.077 164.573 99.077 105.454 0 197.594-100.728 199.192-214.677 0-67.653-34.486-82.513-197.461-82.513z" />
<glyph unicode="&#xe917;" glyph-name="platforms" horiz-adv-x="1267" d="M633.778 337.564c-4.618 0.019-8.988 1.059-12.903 2.905l0.186-0.079-603.464 281.154c-10.335 4.929-17.349 15.293-17.349 27.296s7.014 22.367 17.167 27.218l0.182 0.078 603.464 281.141c3.746 1.788 8.141 2.833 12.781 2.833s9.035-1.044 12.964-2.911l-0.183 0.078 603.335-281.141c10.399-4.878 17.472-15.261 17.472-27.296s-7.073-22.417-17.288-27.218l-0.184-0.078-603.335-281.167c-3.766-1.776-8.181-2.813-12.838-2.813-0.003 0-0.005 0-0.008 0v0zM101.733 648.84l532.045-247.911 532.173 247.911-532.173 247.911zM646.623 139.557l603.335 281.141c10.36 4.91 17.396 15.281 17.396 27.296 0 16.631-13.482 30.113-30.113 30.113-4.616 0-8.989-1.039-12.899-2.895l0.183 0.078-590.747-275.181-590.619 275.181c-3.727 1.778-8.101 2.817-12.717 2.817-16.631 0-30.113-13.482-30.113-30.113 0-12.015 7.037-22.386 17.214-27.218l0.183-0.078 603.335-281.141c3.768-1.781 8.184-2.822 12.844-2.826h0.001c4.617 0.004 8.99 1.046 12.899 2.904l-0.183-0.078zM646.623-61.277l603.335 281.141c10.582 4.827 17.804 15.314 17.804 27.488 0 16.636-13.486 30.122-30.122 30.122-4.771 0-9.283-1.109-13.292-3.084l0.177 0.079-590.747-275.194-590.619 275.207c-3.832 1.896-8.345 3.005-13.116 3.005-16.636 0-30.122-13.486-30.122-30.122 0-12.174 7.222-22.662 17.616-27.411l0.188-0.077 603.335-281.141c3.728-1.773 8.099-2.814 12.712-2.826h0.004c0.002 0 0.005 0 0.007 0 4.657 0 9.071 1.037 13.026 2.892l-0.188-0.079z" />
<glyph unicode="&#xe918;" glyph-name="presse" horiz-adv-x="1106" d="M360.568 568.327h274.701c16.791 0.666 30.228 14.129 30.853 30.868l0.002 0.058v192.398c-0.633 16.792-14.068 30.248-30.793 30.912l-0.062 0.002h-274.701c-16.52-1.337-29.605-14.401-30.966-30.792l-0.008-0.122v-192.398c0.642-16.832 14.137-30.311 30.917-30.925l0.057-0.002zM391.422 630.167v130.558h212.872v-130.558h-212.872zM745.173 595.809h192.303c16.817 0.341 30.318 14.054 30.318 30.92s-13.502 30.579-30.286 30.92l-0.032 0.001h-192.303c-0.181 0.004-0.394 0.006-0.608 0.006-17.080 0-30.926-13.846-30.926-30.926s13.846-30.926 30.926-30.926c0.214 0 0.427 0.002 0.64 0.006l-0.032-0.001zM745.173 733.243h192.303c16.817 0.341 30.318 14.054 30.318 30.92s-13.502 30.579-30.286 30.92l-0.032 0.001h-192.303c-0.181 0.004-0.394 0.006-0.608 0.006-17.080 0-30.926-13.846-30.926-30.926s13.846-30.926 30.926-30.926c0.214 0 0.427 0.002 0.64 0.006l-0.032-0.001zM360.568 430.881h576.908c16.817 0.341 30.318 14.054 30.318 30.92s-13.502 30.579-30.286 30.92l-0.032 0.001h-576.908c-0.181 0.004-0.394 0.006-0.608 0.006-17.080 0-30.926-13.846-30.926-30.926s13.846-30.926 30.926-30.926c0.214 0 0.427 0.002 0.64 0.006l-0.032-0.001zM1074.766 959.964h-851.729c-16.396-1.559-29.328-14.512-30.844-30.779l-0.010-0.135v-518.787h-161.448c-16.436-1.478-29.415-14.482-30.845-30.798l-0.009-0.128v-316.080c0.095-70.169 56.956-127.025 127.117-127.114h851.618c70.17 0.088 127.030 56.945 127.125 127.104v865.85c-0.702 16.799-14.167 30.235-30.913 30.889l-0.061 0.002zM1043.912 898.123v-834.866c0.002-0.207 0.004-0.452 0.004-0.698 0-35.666-28.913-64.579-64.579-64.579-0.254 0-0.507 0.001-0.76 0.004h-745.612c12.793 18.244 20.605 40.804 21.046 65.164l0.002 0.109v834.866h789.9zM192.183 348.422v-285.165c0-36.029-29.208-65.237-65.237-65.237s-65.237 29.208-65.237 65.237v285.189h130.474zM360.568 128.542h576.908c16.817 0.341 30.318 14.054 30.318 30.92s-13.502 30.579-30.286 30.92l-0.032 0.001h-576.908c-0.314 0.011-0.683 0.018-1.053 0.018-17.080 0-30.926-13.846-30.926-30.926s13.846-30.926 30.926-30.926c0.37 0 0.739 0.007 1.106 0.019l-0.053-0.001zM360.568 279.705h576.908c16.817 0.341 30.318 14.054 30.318 30.92s-13.502 30.579-30.286 30.92l-0.032 0.001h-576.908c-0.314 0.011-0.683 0.018-1.053 0.018-17.080 0-30.926-13.846-30.926-30.926s13.846-30.926 30.926-30.926c0.37 0 0.739 0.007 1.106 0.019l-0.053-0.001z" />
<glyph unicode="&#xe919;" glyph-name="link-default" horiz-adv-x="1028" d="M427.304 522.86c-8.743-44.807 4.371-90.707 39.343-124.585 54.642-54.642 144.256-54.642 198.899 0l181.413 181.413c54.642 54.642 54.642 144.256 0 198.899s-144.256 54.642-198.899 0l-109.285-109.285c0 0-49.178 12.021-96.171 8.743s-101.635-28.414-101.635-28.414c9.836 14.207 20.764 28.414 33.878 40.435l179.227 180.32c106.006 106.006 278.677 106.006 384.683 0s106.006-278.677 0-384.683l-180.32-181.413c-106.006-106.006-278.677-106.006-384.683 0-34.971 34.971-56.828 73.221-68.85 118.028 0 0 49.178 49.178 68.85 68.85 26.228 25.136 53.55 31.693 53.55 31.693zM681.938 233.255c-9.836-13.114-14.207-18.578-26.228-30.6l-180.32-181.413c-106.006-106.006-278.677-106.006-384.683 0s-106.006 278.677 0 384.683l181.413 181.413c106.006 106.006 278.677 106.006 384.683 0 32.785-32.785 55.735-73.221 68.85-114.749 0 0-52.457-52.457-73.221-71.035-17.486-17.486-48.085-25.136-48.085-25.136 6.557 42.621-6.557 85.242-39.343 119.121-54.642 54.642-144.256 54.642-198.899 0l-182.506-182.506c-54.642-54.642-54.642-144.256 0-198.899s144.256-54.642 198.899 0l104.914 104.914c0 0 46.993-10.928 91.799-8.743 44.807 1.093 102.728 22.95 102.728 22.95z" />
<glyph unicode="&#xe900;" glyph-name="arrow-left" d="M716.8 919.040c-32.768 32.768-68.268 13.653-81.92 0l-327.68-286.72c-6.827-6.827-20.48-24.576-20.48-40.96s13.653-34.133 20.48-40.96l327.68-286.72c13.652-13.652 49.152-32.768 81.92 0s13.652 68.268 0 81.92l-266.24 245.76 266.24 245.76c13.652 13.653 32.768 49.152 0 81.92z" />
<glyph unicode="&#xe901;" glyph-name="arrow-right" d="M304.812 263.68c32.768-32.768 68.267-13.652 81.92 0l327.68 286.72c6.828 6.827 20.48 24.576 20.48 40.96s-13.652 34.133-20.48 40.96l-327.68 286.72c-13.653 13.653-49.152 32.768-81.92 0s-13.653-68.267 0-81.92l266.24-245.76-266.24-245.76c-13.653-13.652-32.768-49.152 0-81.92z" />
<glyph unicode="&#xe91a;" glyph-name="magnifyer" d="M983.982 129.215l-187.576 188.177c39.243 65.563 59.962 140.541 59.976 216.941-0.225 234.098-190.065 423.737-424.161 423.737-30.986 0-61.867-3.431-92.093-10.227-3.338-0.745-6.756-1.569-10.227-2.46-188.682-47.091-321.163-216.476-321.416-410.945-0.199-194.666 132.455-364.356 321.416-411.153 3.338-0.959 6.756-1.785 10.227-2.461 30.227-6.796 61.107-10.226 92.093-10.226 73.94-0.096 146.62 19.282 210.705 56.173l189.095-189.508c41.97-41.97 110.005-41.97 151.962 0 41.96 41.96 41.96 109.995 0 151.951zM753.545 534.333c0.014-34.789-5.652-69.366-16.783-102.332-4.495-13.445-9.895-26.573-16.172-39.284-32.621-66.031-86.746-118.985-153.494-150.118-42.168-19.521-88.091-29.614-134.567-29.577-31.188-0.010-62.198 4.495-92.095 13.408l-10.227 3.27c-130.966 43.913-219.269 166.513-219.402 304.633 0.146 138.041 88.277 260.642 219.096 304.741l10.227 3.271c29.882 8.91 60.909 13.418 92.093 13.405 177.391-0.173 321.15-143.932 321.324-321.311v-0.106z" />
</font>
</defs>
</svg>
